<svg width="523" height="183" viewBox="0 0 523 183" fill="none" xmlns="http://www.w3.org/2000/svg">
    <path d="M251.197 40H250.072V31.4688H251.197V40ZM254.115 33.6602L254.15 34.457C254.635 33.8477 255.268 33.543 256.049 33.543C257.389 33.543 258.064 34.2988 258.076 35.8105V40H256.992V35.8047C256.988 35.3477 256.883 35.0098 256.676 34.791C256.473 34.5723 256.154 34.4629 255.721 34.4629C255.369 34.4629 255.061 34.5566 254.795 34.7441C254.529 34.9316 254.322 35.1777 254.174 35.4824V40H253.09V33.6602H254.115ZM259.447 36.7773C259.447 35.8047 259.678 35.0234 260.139 34.4336C260.6 33.8398 261.203 33.543 261.949 33.543C262.691 33.543 263.279 33.7969 263.713 34.3047V31H264.797V40H263.801L263.748 39.3203C263.314 39.8516 262.711 40.1172 261.938 40.1172C261.203 40.1172 260.604 39.8164 260.139 39.2148C259.678 38.6133 259.447 37.8281 259.447 36.8594V36.7773ZM260.531 36.9004C260.531 37.6191 260.68 38.1816 260.977 38.5879C261.273 38.9941 261.684 39.1973 262.207 39.1973C262.895 39.1973 263.396 38.8887 263.713 38.2715V35.3594C263.389 34.7617 262.891 34.4629 262.219 34.4629C261.688 34.4629 261.273 34.668 260.977 35.0781C260.68 35.4883 260.531 36.0957 260.531 36.9004ZM270.398 39.373C269.977 39.8691 269.357 40.1172 268.541 40.1172C267.865 40.1172 267.35 39.9219 266.994 39.5312C266.643 39.1367 266.465 38.5547 266.461 37.7852V33.6602H267.545V37.7559C267.545 38.7168 267.936 39.1973 268.717 39.1973C269.545 39.1973 270.096 38.8887 270.369 38.2715V33.6602H271.453V40H270.422L270.398 39.373ZM276.797 38.3184C276.797 38.0254 276.686 37.7988 276.463 37.6387C276.244 37.4746 275.859 37.334 275.309 37.2168C274.762 37.0996 274.326 36.959 274.002 36.7949C273.682 36.6309 273.443 36.4355 273.287 36.209C273.135 35.9824 273.059 35.7129 273.059 35.4004C273.059 34.8809 273.277 34.4414 273.715 34.082C274.156 33.7227 274.719 33.543 275.402 33.543C276.121 33.543 276.703 33.7285 277.148 34.0996C277.598 34.4707 277.822 34.9453 277.822 35.5234H276.732C276.732 35.2266 276.605 34.9707 276.352 34.7559C276.102 34.541 275.785 34.4336 275.402 34.4336C275.008 34.4336 274.699 34.5195 274.477 34.6914C274.254 34.8633 274.143 35.0879 274.143 35.3652C274.143 35.627 274.246 35.8242 274.453 35.957C274.66 36.0898 275.033 36.2168 275.572 36.3379C276.115 36.459 276.555 36.6035 276.891 36.7715C277.227 36.9395 277.475 37.1426 277.635 37.3809C277.799 37.6152 277.881 37.9023 277.881 38.2422C277.881 38.8086 277.654 39.2637 277.201 39.6074C276.748 39.9473 276.16 40.1172 275.438 40.1172C274.93 40.1172 274.48 40.0273 274.09 39.8477C273.699 39.668 273.393 39.418 273.17 39.0977C272.951 38.7734 272.842 38.4238 272.842 38.0488H273.926C273.945 38.4121 274.09 38.7012 274.359 38.916C274.633 39.127 274.992 39.2324 275.438 39.2324C275.848 39.2324 276.176 39.1504 276.422 38.9863C276.672 38.8184 276.797 38.5957 276.797 38.3184ZM280.764 32.125V33.6602H281.947V34.498H280.764V38.4297C280.764 38.6836 280.816 38.875 280.922 39.0039C281.027 39.1289 281.207 39.1914 281.461 39.1914C281.586 39.1914 281.758 39.168 281.977 39.1211V40C281.691 40.0781 281.414 40.1172 281.145 40.1172C280.66 40.1172 280.295 39.9707 280.049 39.6777C279.803 39.3848 279.68 38.9688 279.68 38.4297V34.498H278.525V33.6602H279.68V32.125H280.764ZM286.283 34.6328C286.119 34.6055 285.941 34.5918 285.75 34.5918C285.039 34.5918 284.557 34.8945 284.303 35.5V40H283.219V33.6602H284.273L284.291 34.3926C284.646 33.8262 285.15 33.543 285.803 33.543C286.014 33.543 286.174 33.5703 286.283 33.625V34.6328ZM288.463 40H287.379V33.6602H288.463V40ZM287.291 31.9785C287.291 31.8027 287.344 31.6543 287.449 31.5332C287.559 31.4121 287.719 31.3516 287.93 31.3516C288.141 31.3516 288.301 31.4121 288.41 31.5332C288.52 31.6543 288.574 31.8027 288.574 31.9785C288.574 32.1543 288.52 32.3008 288.41 32.418C288.301 32.5352 288.141 32.5938 287.93 32.5938C287.719 32.5938 287.559 32.5352 287.449 32.418C287.344 32.3008 287.291 32.1543 287.291 31.9785ZM294.117 40C294.055 39.875 294.004 39.6523 293.965 39.332C293.461 39.8555 292.859 40.1172 292.16 40.1172C291.535 40.1172 291.021 39.9414 290.619 39.5898C290.221 39.2344 290.021 38.7852 290.021 38.2422C290.021 37.582 290.271 37.0703 290.771 36.707C291.275 36.3398 291.982 36.1562 292.893 36.1562H293.947V35.6582C293.947 35.2793 293.834 34.9785 293.607 34.7559C293.381 34.5293 293.047 34.416 292.605 34.416C292.219 34.416 291.895 34.5137 291.633 34.709C291.371 34.9043 291.24 35.1406 291.24 35.418H290.15C290.15 35.1016 290.262 34.7969 290.484 34.5039C290.711 34.207 291.016 33.9727 291.398 33.8008C291.785 33.6289 292.209 33.543 292.67 33.543C293.4 33.543 293.973 33.7266 294.387 34.0938C294.801 34.457 295.016 34.959 295.031 35.5996V38.5176C295.031 39.0996 295.105 39.5625 295.254 39.9062V40H294.117ZM292.318 39.1738C292.658 39.1738 292.98 39.0859 293.285 38.9102C293.59 38.7344 293.811 38.5059 293.947 38.2246V36.9238H293.098C291.77 36.9238 291.105 37.3125 291.105 38.0898C291.105 38.4297 291.219 38.6953 291.445 38.8867C291.672 39.0781 291.963 39.1738 292.318 39.1738ZM303.621 40C303.559 39.875 303.508 39.6523 303.469 39.332C302.965 39.8555 302.363 40.1172 301.664 40.1172C301.039 40.1172 300.525 39.9414 300.123 39.5898C299.725 39.2344 299.525 38.7852 299.525 38.2422C299.525 37.582 299.775 37.0703 300.275 36.707C300.779 36.3398 301.486 36.1562 302.396 36.1562H303.451V35.6582C303.451 35.2793 303.338 34.9785 303.111 34.7559C302.885 34.5293 302.551 34.416 302.109 34.416C301.723 34.416 301.398 34.5137 301.137 34.709C300.875 34.9043 300.744 35.1406 300.744 35.418H299.654C299.654 35.1016 299.766 34.7969 299.988 34.5039C300.215 34.207 300.52 33.9727 300.902 33.8008C301.289 33.6289 301.713 33.543 302.174 33.543C302.904 33.543 303.477 33.7266 303.891 34.0938C304.305 34.457 304.52 34.959 304.535 35.5996V38.5176C304.535 39.0996 304.609 39.5625 304.758 39.9062V40H303.621ZM301.822 39.1738C302.162 39.1738 302.484 39.0859 302.789 38.9102C303.094 38.7344 303.314 38.5059 303.451 38.2246V36.9238H302.602C301.273 36.9238 300.609 37.3125 300.609 38.0898C300.609 38.4297 300.723 38.6953 300.949 38.8867C301.176 39.0781 301.467 39.1738 301.822 39.1738ZM310.148 39.373C309.727 39.8691 309.107 40.1172 308.291 40.1172C307.615 40.1172 307.1 39.9219 306.744 39.5312C306.393 39.1367 306.215 38.5547 306.211 37.7852V33.6602H307.295V37.7559C307.295 38.7168 307.686 39.1973 308.467 39.1973C309.295 39.1973 309.846 38.8887 310.119 38.2715V33.6602H311.203V40H310.172L310.148 39.373ZM314.326 32.125V33.6602H315.51V34.498H314.326V38.4297C314.326 38.6836 314.379 38.875 314.484 39.0039C314.59 39.1289 314.77 39.1914 315.023 39.1914C315.148 39.1914 315.32 39.168 315.539 39.1211V40C315.254 40.0781 314.977 40.1172 314.707 40.1172C314.223 40.1172 313.857 39.9707 313.611 39.6777C313.365 39.3848 313.242 38.9688 313.242 38.4297V34.498H312.088V33.6602H313.242V32.125H314.326ZM316.377 36.7715C316.377 36.1504 316.498 35.5918 316.74 35.0957C316.986 34.5996 317.326 34.2168 317.76 33.9473C318.197 33.6777 318.695 33.543 319.254 33.543C320.117 33.543 320.814 33.8418 321.346 34.4395C321.881 35.0371 322.148 35.832 322.148 36.8242V36.9004C322.148 37.5176 322.029 38.0723 321.791 38.5645C321.557 39.0527 321.219 39.4336 320.777 39.707C320.34 39.9805 319.836 40.1172 319.266 40.1172C318.406 40.1172 317.709 39.8184 317.174 39.2207C316.643 38.623 316.377 37.832 316.377 36.8477V36.7715ZM317.467 36.9004C317.467 37.6035 317.629 38.168 317.953 38.5938C318.281 39.0195 318.719 39.2324 319.266 39.2324C319.816 39.2324 320.254 39.0176 320.578 38.5879C320.902 38.1543 321.064 37.5488 321.064 36.7715C321.064 36.0762 320.898 35.5137 320.566 35.084C320.238 34.6504 319.801 34.4336 319.254 34.4336C318.719 34.4336 318.287 34.6465 317.959 35.0723C317.631 35.498 317.467 36.1074 317.467 36.9004ZM324.527 33.6602L324.557 34.3633C325.021 33.8164 325.648 33.543 326.438 33.543C327.324 33.543 327.928 33.8828 328.248 34.5625C328.459 34.2578 328.732 34.0117 329.068 33.8242C329.408 33.6367 329.809 33.543 330.27 33.543C331.66 33.543 332.367 34.2793 332.391 35.752V40H331.307V35.8164C331.307 35.3633 331.203 35.0254 330.996 34.8027C330.789 34.5762 330.441 34.4629 329.953 34.4629C329.551 34.4629 329.217 34.584 328.951 34.8262C328.686 35.0645 328.531 35.3867 328.488 35.793V40H327.398V35.8457C327.398 34.9238 326.947 34.4629 326.045 34.4629C325.334 34.4629 324.848 34.7656 324.586 35.3711V40H323.502V33.6602H324.527ZM333.744 36.7715C333.744 36.1504 333.865 35.5918 334.107 35.0957C334.354 34.5996 334.693 34.2168 335.127 33.9473C335.564 33.6777 336.062 33.543 336.621 33.543C337.484 33.543 338.182 33.8418 338.713 34.4395C339.248 35.0371 339.516 35.832 339.516 36.8242V36.9004C339.516 37.5176 339.396 38.0723 339.158 38.5645C338.924 39.0527 338.586 39.4336 338.145 39.707C337.707 39.9805 337.203 40.1172 336.633 40.1172C335.773 40.1172 335.076 39.8184 334.541 39.2207C334.01 38.623 333.744 37.832 333.744 36.8477V36.7715ZM334.834 36.9004C334.834 37.6035 334.996 38.168 335.32 38.5938C335.648 39.0195 336.086 39.2324 336.633 39.2324C337.184 39.2324 337.621 39.0176 337.945 38.5879C338.27 38.1543 338.432 37.5488 338.432 36.7715C338.432 36.0762 338.266 35.5137 337.934 35.084C337.605 34.6504 337.168 34.4336 336.621 34.4336C336.086 34.4336 335.654 34.6465 335.326 35.0723C334.998 35.498 334.834 36.1074 334.834 36.9004ZM342.346 32.125V33.6602H343.529V34.498H342.346V38.4297C342.346 38.6836 342.398 38.875 342.504 39.0039C342.609 39.1289 342.789 39.1914 343.043 39.1914C343.168 39.1914 343.34 39.168 343.559 39.1211V40C343.273 40.0781 342.996 40.1172 342.727 40.1172C342.242 40.1172 341.877 39.9707 341.631 39.6777C341.385 39.3848 341.262 38.9688 341.262 38.4297V34.498H340.107V33.6602H341.262V32.125H342.346ZM347.865 34.6328C347.701 34.6055 347.523 34.5918 347.332 34.5918C346.621 34.5918 346.139 34.8945 345.885 35.5V40H344.801V33.6602H345.855L345.873 34.3926C346.229 33.8262 346.732 33.543 347.385 33.543C347.596 33.543 347.756 33.5703 347.865 33.625V34.6328ZM350.045 40H348.961V33.6602H350.045V40ZM348.873 31.9785C348.873 31.8027 348.926 31.6543 349.031 31.5332C349.141 31.4121 349.301 31.3516 349.512 31.3516C349.723 31.3516 349.883 31.4121 349.992 31.5332C350.102 31.6543 350.156 31.8027 350.156 31.9785C350.156 32.1543 350.102 32.3008 349.992 32.418C349.883 32.5352 349.723 32.5938 349.512 32.5938C349.301 32.5938 349.141 32.5352 349.031 32.418C348.926 32.3008 348.873 32.1543 348.873 31.9785ZM352.805 39.1152H356.514V40H351.48V39.2031L354.979 34.5566H351.533V33.6602H356.338V34.4277L352.805 39.1152ZM357.955 40.7324H357.023L360.586 31.4688H361.512L357.955 40.7324ZM363.703 33.6602L363.732 34.3633C364.197 33.8164 364.824 33.543 365.613 33.543C366.5 33.543 367.104 33.8828 367.424 34.5625C367.635 34.2578 367.908 34.0117 368.244 33.8242C368.584 33.6367 368.984 33.543 369.445 33.543C370.836 33.543 371.543 34.2793 371.566 35.752V40H370.482V35.8164C370.482 35.3633 370.379 35.0254 370.172 34.8027C369.965 34.5762 369.617 34.4629 369.129 34.4629C368.727 34.4629 368.393 34.584 368.127 34.8262C367.861 35.0645 367.707 35.3867 367.664 35.793V40H366.574V35.8457C366.574 34.9238 366.123 34.4629 365.221 34.4629C364.51 34.4629 364.023 34.7656 363.762 35.3711V40H362.678V33.6602H363.703ZM377.121 40C377.059 39.875 377.008 39.6523 376.969 39.332C376.465 39.8555 375.863 40.1172 375.164 40.1172C374.539 40.1172 374.025 39.9414 373.623 39.5898C373.225 39.2344 373.025 38.7852 373.025 38.2422C373.025 37.582 373.275 37.0703 373.775 36.707C374.279 36.3398 374.986 36.1562 375.896 36.1562H376.951V35.6582C376.951 35.2793 376.838 34.9785 376.611 34.7559C376.385 34.5293 376.051 34.416 375.609 34.416C375.223 34.416 374.898 34.5137 374.637 34.709C374.375 34.9043 374.244 35.1406 374.244 35.418H373.154C373.154 35.1016 373.266 34.7969 373.488 34.5039C373.715 34.207 374.02 33.9727 374.402 33.8008C374.789 33.6289 375.213 33.543 375.674 33.543C376.404 33.543 376.977 33.7266 377.391 34.0938C377.805 34.457 378.02 34.959 378.035 35.5996V38.5176C378.035 39.0996 378.109 39.5625 378.258 39.9062V40H377.121ZM375.322 39.1738C375.662 39.1738 375.984 39.0859 376.289 38.9102C376.594 38.7344 376.814 38.5059 376.951 38.2246V36.9238H376.102C374.773 36.9238 374.109 37.3125 374.109 38.0898C374.109 38.4297 374.223 38.6953 374.449 38.8867C374.676 39.0781 374.967 39.1738 375.322 39.1738ZM380.76 33.6602L380.795 34.457C381.279 33.8477 381.912 33.543 382.693 33.543C384.033 33.543 384.709 34.2988 384.721 35.8105V40H383.637V35.8047C383.633 35.3477 383.527 35.0098 383.32 34.791C383.117 34.5723 382.799 34.4629 382.365 34.4629C382.014 34.4629 381.705 34.5566 381.439 34.7441C381.174 34.9316 380.967 35.1777 380.818 35.4824V40H379.734V33.6602H380.76ZM390.27 39.373C389.848 39.8691 389.229 40.1172 388.412 40.1172C387.736 40.1172 387.221 39.9219 386.865 39.5312C386.514 39.1367 386.336 38.5547 386.332 37.7852V33.6602H387.416V37.7559C387.416 38.7168 387.807 39.1973 388.588 39.1973C389.416 39.1973 389.967 38.8887 390.24 38.2715V33.6602H391.324V40H390.293L390.27 39.373ZM393.51 40V34.498H392.508V33.6602H393.51V33.0098C393.51 32.3301 393.691 31.8047 394.055 31.4336C394.418 31.0625 394.932 30.877 395.596 30.877C395.846 30.877 396.094 30.9102 396.34 30.9766L396.281 31.8555C396.098 31.8203 395.902 31.8027 395.695 31.8027C395.344 31.8027 395.072 31.9062 394.881 32.1133C394.689 32.3164 394.594 32.6094 394.594 32.9922V33.6602H395.947V34.498H394.594V40H393.51ZM401.062 40C401 39.875 400.949 39.6523 400.91 39.332C400.406 39.8555 399.805 40.1172 399.105 40.1172C398.48 40.1172 397.967 39.9414 397.564 39.5898C397.166 39.2344 396.967 38.7852 396.967 38.2422C396.967 37.582 397.217 37.0703 397.717 36.707C398.221 36.3398 398.928 36.1562 399.838 36.1562H400.893V35.6582C400.893 35.2793 400.779 34.9785 400.553 34.7559C400.326 34.5293 399.992 34.416 399.551 34.416C399.164 34.416 398.84 34.5137 398.578 34.709C398.316 34.9043 398.186 35.1406 398.186 35.418H397.096C397.096 35.1016 397.207 34.7969 397.43 34.5039C397.656 34.207 397.961 33.9727 398.344 33.8008C398.73 33.6289 399.154 33.543 399.615 33.543C400.346 33.543 400.918 33.7266 401.332 34.0938C401.746 34.457 401.961 34.959 401.977 35.5996V38.5176C401.977 39.0996 402.051 39.5625 402.199 39.9062V40H401.062ZM399.264 39.1738C399.604 39.1738 399.926 39.0859 400.23 38.9102C400.535 38.7344 400.756 38.5059 400.893 38.2246V36.9238H400.043C398.715 36.9238 398.051 37.3125 398.051 38.0898C398.051 38.4297 398.164 38.6953 398.391 38.8867C398.617 39.0781 398.908 39.1738 399.264 39.1738ZM406.219 39.2324C406.605 39.2324 406.943 39.1152 407.232 38.8809C407.521 38.6465 407.682 38.3535 407.713 38.002H408.738C408.719 38.3652 408.594 38.7109 408.363 39.0391C408.133 39.3672 407.824 39.6289 407.438 39.8242C407.055 40.0195 406.648 40.1172 406.219 40.1172C405.355 40.1172 404.668 39.8301 404.156 39.2559C403.648 38.6777 403.395 37.8887 403.395 36.8887V36.707C403.395 36.0898 403.508 35.541 403.734 35.0605C403.961 34.5801 404.285 34.207 404.707 33.9414C405.133 33.6758 405.635 33.543 406.213 33.543C406.924 33.543 407.514 33.7559 407.982 34.1816C408.455 34.6074 408.707 35.1602 408.738 35.8398H407.713C407.682 35.4297 407.525 35.0938 407.244 34.832C406.967 34.5664 406.623 34.4336 406.213 34.4336C405.662 34.4336 405.234 34.6328 404.93 35.0312C404.629 35.4258 404.479 35.998 404.479 36.748V36.9531C404.479 37.6836 404.629 38.2461 404.93 38.6406C405.23 39.0352 405.66 39.2324 406.219 39.2324ZM411.428 32.125V33.6602H412.611V34.498H411.428V38.4297C411.428 38.6836 411.48 38.875 411.586 39.0039C411.691 39.1289 411.871 39.1914 412.125 39.1914C412.25 39.1914 412.422 39.168 412.641 39.1211V40C412.355 40.0781 412.078 40.1172 411.809 40.1172C411.324 40.1172 410.959 39.9707 410.713 39.6777C410.467 39.3848 410.344 38.9688 410.344 38.4297V34.498H409.189V33.6602H410.344V32.125H411.428ZM417.797 39.373C417.375 39.8691 416.756 40.1172 415.939 40.1172C415.264 40.1172 414.748 39.9219 414.393 39.5312C414.041 39.1367 413.863 38.5547 413.859 37.7852V33.6602H414.943V37.7559C414.943 38.7168 415.334 39.1973 416.115 39.1973C416.943 39.1973 417.494 38.8887 417.768 38.2715V33.6602H418.852V40H417.82L417.797 39.373ZM423.568 34.6328C423.404 34.6055 423.227 34.5918 423.035 34.5918C422.324 34.5918 421.842 34.8945 421.588 35.5V40H420.504V33.6602H421.559L421.576 34.3926C421.932 33.8262 422.436 33.543 423.088 33.543C423.299 33.543 423.459 33.5703 423.568 33.625V34.6328ZM427.084 40.1172C426.225 40.1172 425.525 39.8359 424.986 39.2734C424.447 38.707 424.178 37.9512 424.178 37.0059V36.8066C424.178 36.1777 424.297 35.6172 424.535 35.125C424.777 34.6289 425.113 34.2422 425.543 33.9648C425.977 33.6836 426.445 33.543 426.949 33.543C427.773 33.543 428.414 33.8145 428.871 34.3574C429.328 34.9004 429.557 35.6777 429.557 36.6895V37.1406H425.262C425.277 37.7656 425.459 38.2715 425.807 38.6582C426.158 39.041 426.604 39.2324 427.143 39.2324C427.525 39.2324 427.85 39.1543 428.115 38.998C428.381 38.8418 428.613 38.6348 428.812 38.377L429.475 38.8926C428.943 39.709 428.146 40.1172 427.084 40.1172ZM426.949 34.4336C426.512 34.4336 426.145 34.5938 425.848 34.9141C425.551 35.2305 425.367 35.6758 425.297 36.25H428.473V36.168C428.441 35.6172 428.293 35.1914 428.027 34.8906C427.762 34.5859 427.402 34.4336 426.949 34.4336ZM433.881 34.6328C433.717 34.6055 433.539 34.5918 433.348 34.5918C432.637 34.5918 432.154 34.8945 431.9 35.5V40H430.816V33.6602H431.871L431.889 34.3926C432.244 33.8262 432.748 33.543 433.4 33.543C433.611 33.543 433.771 33.5703 433.881 33.625V34.6328ZM438.562 40C438.5 39.875 438.449 39.6523 438.41 39.332C437.906 39.8555 437.305 40.1172 436.605 40.1172C435.98 40.1172 435.467 39.9414 435.064 39.5898C434.666 39.2344 434.467 38.7852 434.467 38.2422C434.467 37.582 434.717 37.0703 435.217 36.707C435.721 36.3398 436.428 36.1562 437.338 36.1562H438.393V35.6582C438.393 35.2793 438.279 34.9785 438.053 34.7559C437.826 34.5293 437.492 34.416 437.051 34.416C436.664 34.416 436.34 34.5137 436.078 34.709C435.816 34.9043 435.686 35.1406 435.686 35.418H434.596C434.596 35.1016 434.707 34.7969 434.93 34.5039C435.156 34.207 435.461 33.9727 435.844 33.8008C436.23 33.6289 436.654 33.543 437.115 33.543C437.846 33.543 438.418 33.7266 438.832 34.0938C439.246 34.457 439.461 34.959 439.477 35.5996V38.5176C439.477 39.0996 439.551 39.5625 439.699 39.9062V40H438.562ZM436.764 39.1738C437.104 39.1738 437.426 39.0859 437.73 38.9102C438.035 38.7344 438.256 38.5059 438.393 38.2246V36.9238H437.543C436.215 36.9238 435.551 37.3125 435.551 38.0898C435.551 38.4297 435.664 38.6953 435.891 38.8867C436.117 39.0781 436.408 39.1738 436.764 39.1738Z" fill="var(--text-color)" />
    <path d="M238 42.8C241.314 42.8 244 40.1138 244 36.8C244 33.4863 241.314 30.8 238 30.8C234.686 30.8 232 33.4863 232 36.8C232 40.1138 234.686 42.8 238 42.8Z" fill="#3366CC" />
    <path d="M251.197 59H250.072V50.4688H251.197V59ZM254.115 52.6602L254.15 53.457C254.635 52.8477 255.268 52.543 256.049 52.543C257.389 52.543 258.064 53.2988 258.076 54.8105V59H256.992V54.8047C256.988 54.3477 256.883 54.0098 256.676 53.791C256.473 53.5723 256.154 53.4629 255.721 53.4629C255.369 53.4629 255.061 53.5566 254.795 53.7441C254.529 53.9316 254.322 54.1777 254.174 54.4824V59H253.09V52.6602H254.115ZM259.447 55.7773C259.447 54.8047 259.678 54.0234 260.139 53.4336C260.6 52.8398 261.203 52.543 261.949 52.543C262.691 52.543 263.279 52.7969 263.713 53.3047V50H264.797V59H263.801L263.748 58.3203C263.314 58.8516 262.711 59.1172 261.938 59.1172C261.203 59.1172 260.604 58.8164 260.139 58.2148C259.678 57.6133 259.447 56.8281 259.447 55.8594V55.7773ZM260.531 55.9004C260.531 56.6191 260.68 57.1816 260.977 57.5879C261.273 57.9941 261.684 58.1973 262.207 58.1973C262.895 58.1973 263.396 57.8887 263.713 57.2715V54.3594C263.389 53.7617 262.891 53.4629 262.219 53.4629C261.688 53.4629 261.273 53.668 260.977 54.0781C260.68 54.4883 260.531 55.0957 260.531 55.9004ZM270.398 58.373C269.977 58.8691 269.357 59.1172 268.541 59.1172C267.865 59.1172 267.35 58.9219 266.994 58.5312C266.643 58.1367 266.465 57.5547 266.461 56.7852V52.6602H267.545V56.7559C267.545 57.7168 267.936 58.1973 268.717 58.1973C269.545 58.1973 270.096 57.8887 270.369 57.2715V52.6602H271.453V59H270.422L270.398 58.373ZM276.797 57.3184C276.797 57.0254 276.686 56.7988 276.463 56.6387C276.244 56.4746 275.859 56.334 275.309 56.2168C274.762 56.0996 274.326 55.959 274.002 55.7949C273.682 55.6309 273.443 55.4355 273.287 55.209C273.135 54.9824 273.059 54.7129 273.059 54.4004C273.059 53.8809 273.277 53.4414 273.715 53.082C274.156 52.7227 274.719 52.543 275.402 52.543C276.121 52.543 276.703 52.7285 277.148 53.0996C277.598 53.4707 277.822 53.9453 277.822 54.5234H276.732C276.732 54.2266 276.605 53.9707 276.352 53.7559C276.102 53.541 275.785 53.4336 275.402 53.4336C275.008 53.4336 274.699 53.5195 274.477 53.6914C274.254 53.8633 274.143 54.0879 274.143 54.3652C274.143 54.627 274.246 54.8242 274.453 54.957C274.66 55.0898 275.033 55.2168 275.572 55.3379C276.115 55.459 276.555 55.6035 276.891 55.7715C277.227 55.9395 277.475 56.1426 277.635 56.3809C277.799 56.6152 277.881 56.9023 277.881 57.2422C277.881 57.8086 277.654 58.2637 277.201 58.6074C276.748 58.9473 276.16 59.1172 275.438 59.1172C274.93 59.1172 274.48 59.0273 274.09 58.8477C273.699 58.668 273.393 58.418 273.17 58.0977C272.951 57.7734 272.842 57.4238 272.842 57.0488H273.926C273.945 57.4121 274.09 57.7012 274.359 57.916C274.633 58.127 274.992 58.2324 275.438 58.2324C275.848 58.2324 276.176 58.1504 276.422 57.9863C276.672 57.8184 276.797 57.5957 276.797 57.3184ZM280.764 51.125V52.6602H281.947V53.498H280.764V57.4297C280.764 57.6836 280.816 57.875 280.922 58.0039C281.027 58.1289 281.207 58.1914 281.461 58.1914C281.586 58.1914 281.758 58.168 281.977 58.1211V59C281.691 59.0781 281.414 59.1172 281.145 59.1172C280.66 59.1172 280.295 58.9707 280.049 58.6777C279.803 58.3848 279.68 57.9688 279.68 57.4297V53.498H278.525V52.6602H279.68V51.125H280.764ZM286.283 53.6328C286.119 53.6055 285.941 53.5918 285.75 53.5918C285.039 53.5918 284.557 53.8945 284.303 54.5V59H283.219V52.6602H284.273L284.291 53.3926C284.646 52.8262 285.15 52.543 285.803 52.543C286.014 52.543 286.174 52.5703 286.283 52.625V53.6328ZM288.463 59H287.379V52.6602H288.463V59ZM287.291 50.9785C287.291 50.8027 287.344 50.6543 287.449 50.5332C287.559 50.4121 287.719 50.3516 287.93 50.3516C288.141 50.3516 288.301 50.4121 288.41 50.5332C288.52 50.6543 288.574 50.8027 288.574 50.9785C288.574 51.1543 288.52 51.3008 288.41 51.418C288.301 51.5352 288.141 51.5938 287.93 51.5938C287.719 51.5938 287.559 51.5352 287.449 51.418C287.344 51.3008 287.291 51.1543 287.291 50.9785ZM294.117 59C294.055 58.875 294.004 58.6523 293.965 58.332C293.461 58.8555 292.859 59.1172 292.16 59.1172C291.535 59.1172 291.021 58.9414 290.619 58.5898C290.221 58.2344 290.021 57.7852 290.021 57.2422C290.021 56.582 290.271 56.0703 290.771 55.707C291.275 55.3398 291.982 55.1562 292.893 55.1562H293.947V54.6582C293.947 54.2793 293.834 53.9785 293.607 53.7559C293.381 53.5293 293.047 53.416 292.605 53.416C292.219 53.416 291.895 53.5137 291.633 53.709C291.371 53.9043 291.24 54.1406 291.24 54.418H290.15C290.15 54.1016 290.262 53.7969 290.484 53.5039C290.711 53.207 291.016 52.9727 291.398 52.8008C291.785 52.6289 292.209 52.543 292.67 52.543C293.4 52.543 293.973 52.7266 294.387 53.0938C294.801 53.457 295.016 53.959 295.031 54.5996V57.5176C295.031 58.0996 295.105 58.5625 295.254 58.9062V59H294.117ZM292.318 58.1738C292.658 58.1738 292.98 58.0859 293.285 57.9102C293.59 57.7344 293.811 57.5059 293.947 57.2246V55.9238H293.098C291.77 55.9238 291.105 56.3125 291.105 57.0898C291.105 57.4297 291.219 57.6953 291.445 57.8867C291.672 58.0781 291.963 58.1738 292.318 58.1738ZM299.443 55.7773C299.443 54.8047 299.674 54.0234 300.135 53.4336C300.596 52.8398 301.199 52.543 301.945 52.543C302.688 52.543 303.275 52.7969 303.709 53.3047V50H304.793V59H303.797L303.744 58.3203C303.311 58.8516 302.707 59.1172 301.934 59.1172C301.199 59.1172 300.6 58.8164 300.135 58.2148C299.674 57.6133 299.443 56.8281 299.443 55.8594V55.7773ZM300.527 55.9004C300.527 56.6191 300.676 57.1816 300.973 57.5879C301.27 57.9941 301.68 58.1973 302.203 58.1973C302.891 58.1973 303.393 57.8887 303.709 57.2715V54.3594C303.385 53.7617 302.887 53.4629 302.215 53.4629C301.684 53.4629 301.27 53.668 300.973 54.0781C300.676 54.4883 300.527 55.0957 300.527 55.9004ZM309.111 59.1172C308.252 59.1172 307.553 58.8359 307.014 58.2734C306.475 57.707 306.205 56.9512 306.205 56.0059V55.8066C306.205 55.1777 306.324 54.6172 306.562 54.125C306.805 53.6289 307.141 53.2422 307.57 52.9648C308.004 52.6836 308.473 52.543 308.977 52.543C309.801 52.543 310.441 52.8145 310.898 53.3574C311.355 53.9004 311.584 54.6777 311.584 55.6895V56.1406H307.289C307.305 56.7656 307.486 57.2715 307.834 57.6582C308.186 58.041 308.631 58.2324 309.17 58.2324C309.553 58.2324 309.877 58.1543 310.143 57.998C310.408 57.8418 310.641 57.6348 310.84 57.377L311.502 57.8926C310.971 58.709 310.174 59.1172 309.111 59.1172ZM308.977 53.4336C308.539 53.4336 308.172 53.5938 307.875 53.9141C307.578 54.2305 307.395 54.6758 307.324 55.25H310.5V55.168C310.469 54.6172 310.32 54.1914 310.055 53.8906C309.789 53.5859 309.43 53.4336 308.977 53.4336ZM319.512 57.3184C319.512 57.0254 319.4 56.7988 319.178 56.6387C318.959 56.4746 318.574 56.334 318.023 56.2168C317.477 56.0996 317.041 55.959 316.717 55.7949C316.396 55.6309 316.158 55.4355 316.002 55.209C315.85 54.9824 315.773 54.7129 315.773 54.4004C315.773 53.8809 315.992 53.4414 316.43 53.082C316.871 52.7227 317.434 52.543 318.117 52.543C318.836 52.543 319.418 52.7285 319.863 53.0996C320.312 53.4707 320.537 53.9453 320.537 54.5234H319.447C319.447 54.2266 319.32 53.9707 319.066 53.7559C318.816 53.541 318.5 53.4336 318.117 53.4336C317.723 53.4336 317.414 53.5195 317.191 53.6914C316.969 53.8633 316.857 54.0879 316.857 54.3652C316.857 54.627 316.961 54.8242 317.168 54.957C317.375 55.0898 317.748 55.2168 318.287 55.3379C318.83 55.459 319.27 55.6035 319.605 55.7715C319.941 55.9395 320.189 56.1426 320.35 56.3809C320.514 56.6152 320.596 56.9023 320.596 57.2422C320.596 57.8086 320.369 58.2637 319.916 58.6074C319.463 58.9473 318.875 59.1172 318.152 59.1172C317.645 59.1172 317.195 59.0273 316.805 58.8477C316.414 58.668 316.107 58.418 315.885 58.0977C315.666 57.7734 315.557 57.4238 315.557 57.0488H316.641C316.66 57.4121 316.805 57.7012 317.074 57.916C317.348 58.127 317.707 58.2324 318.152 58.2324C318.562 58.2324 318.891 58.1504 319.137 57.9863C319.387 57.8184 319.512 57.5957 319.512 57.3184ZM321.721 55.7715C321.721 55.1504 321.842 54.5918 322.084 54.0957C322.33 53.5996 322.67 53.2168 323.104 52.9473C323.541 52.6777 324.039 52.543 324.598 52.543C325.461 52.543 326.158 52.8418 326.689 53.4395C327.225 54.0371 327.492 54.832 327.492 55.8242V55.9004C327.492 56.5176 327.373 57.0723 327.135 57.5645C326.9 58.0527 326.562 58.4336 326.121 58.707C325.684 58.9805 325.18 59.1172 324.609 59.1172C323.75 59.1172 323.053 58.8184 322.518 58.2207C321.986 57.623 321.721 56.832 321.721 55.8477V55.7715ZM322.811 55.9004C322.811 56.6035 322.973 57.168 323.297 57.5938C323.625 58.0195 324.062 58.2324 324.609 58.2324C325.16 58.2324 325.598 58.0176 325.922 57.5879C326.246 57.1543 326.408 56.5488 326.408 55.7715C326.408 55.0762 326.242 54.5137 325.91 54.084C325.582 53.6504 325.145 53.4336 324.598 53.4336C324.062 53.4336 323.631 53.6465 323.303 54.0723C322.975 54.498 322.811 55.1074 322.811 55.9004ZM329.385 59V53.498H328.383V52.6602H329.385V52.0098C329.385 51.3301 329.566 50.8047 329.93 50.4336C330.293 50.0625 330.807 49.877 331.471 49.877C331.721 49.877 331.969 49.9102 332.215 49.9766L332.156 50.8555C331.973 50.8203 331.777 50.8027 331.57 50.8027C331.219 50.8027 330.947 50.9062 330.756 51.1133C330.564 51.3164 330.469 51.6094 330.469 51.9922V52.6602H331.822V53.498H330.469V59H329.385ZM334.494 51.125V52.6602H335.678V53.498H334.494V57.4297C334.494 57.6836 334.547 57.875 334.652 58.0039C334.758 58.1289 334.938 58.1914 335.191 58.1914C335.316 58.1914 335.488 58.168 335.707 58.1211V59C335.422 59.0781 335.145 59.1172 334.875 59.1172C334.391 59.1172 334.025 58.9707 333.779 58.6777C333.533 58.3848 333.41 57.9688 333.41 57.4297V53.498H332.256V52.6602H333.41V51.125H334.494ZM342.562 57.5059L343.781 52.6602H344.865L343.02 59H342.141L340.6 54.1953L339.1 59H338.221L336.381 52.6602H337.459L338.707 57.4062L340.184 52.6602H341.057L342.562 57.5059ZM349.887 59C349.824 58.875 349.773 58.6523 349.734 58.332C349.23 58.8555 348.629 59.1172 347.93 59.1172C347.305 59.1172 346.791 58.9414 346.389 58.5898C345.99 58.2344 345.791 57.7852 345.791 57.2422C345.791 56.582 346.041 56.0703 346.541 55.707C347.045 55.3398 347.752 55.1562 348.662 55.1562H349.717V54.6582C349.717 54.2793 349.604 53.9785 349.377 53.7559C349.15 53.5293 348.816 53.416 348.375 53.416C347.988 53.416 347.664 53.5137 347.402 53.709C347.141 53.9043 347.01 54.1406 347.01 54.418H345.92C345.92 54.1016 346.031 53.7969 346.254 53.5039C346.48 53.207 346.785 52.9727 347.168 52.8008C347.555 52.6289 347.979 52.543 348.439 52.543C349.17 52.543 349.742 52.7266 350.156 53.0938C350.57 53.457 350.785 53.959 350.801 54.5996V57.5176C350.801 58.0996 350.875 58.5625 351.023 58.9062V59H349.887ZM348.088 58.1738C348.428 58.1738 348.75 58.0859 349.055 57.9102C349.359 57.7344 349.58 57.5059 349.717 57.2246V55.9238H348.867C347.539 55.9238 346.875 56.3125 346.875 57.0898C346.875 57.4297 346.988 57.6953 347.215 57.8867C347.441 58.0781 347.732 58.1738 348.088 58.1738ZM355.564 53.6328C355.4 53.6055 355.223 53.5918 355.031 53.5918C354.32 53.5918 353.838 53.8945 353.584 54.5V59H352.5V52.6602H353.555L353.572 53.3926C353.928 52.8262 354.432 52.543 355.084 52.543C355.295 52.543 355.455 52.5703 355.564 52.625V53.6328ZM359.08 59.1172C358.221 59.1172 357.521 58.8359 356.982 58.2734C356.443 57.707 356.174 56.9512 356.174 56.0059V55.8066C356.174 55.1777 356.293 54.6172 356.531 54.125C356.773 53.6289 357.109 53.2422 357.539 52.9648C357.973 52.6836 358.441 52.543 358.945 52.543C359.77 52.543 360.41 52.8145 360.867 53.3574C361.324 53.9004 361.553 54.6777 361.553 55.6895V56.1406H357.258C357.273 56.7656 357.455 57.2715 357.803 57.6582C358.154 58.041 358.6 58.2324 359.139 58.2324C359.521 58.2324 359.846 58.1543 360.111 57.998C360.377 57.8418 360.609 57.6348 360.809 57.377L361.471 57.8926C360.939 58.709 360.143 59.1172 359.08 59.1172ZM358.945 53.4336C358.508 53.4336 358.141 53.5938 357.844 53.9141C357.547 54.2305 357.363 54.6758 357.293 55.25H360.469V55.168C360.438 54.6172 360.289 54.1914 360.023 53.8906C359.758 53.5859 359.398 53.4336 358.945 53.4336ZM365.748 55.5371C365.748 54.6543 365.865 53.8066 366.1 52.9941C366.338 52.1816 366.691 51.4434 367.16 50.7793C367.629 50.1152 368.115 49.6465 368.619 49.373L368.842 50.0879C368.271 50.5254 367.803 51.1934 367.436 52.0918C367.072 52.9902 366.873 53.9961 366.838 55.1094L366.832 55.6074C366.832 57.1152 367.107 58.4238 367.658 59.5332C367.99 60.1973 368.385 60.7168 368.842 61.0918L368.619 61.7539C368.1 61.4648 367.604 60.9805 367.131 60.3008C366.209 58.9727 365.748 57.3848 365.748 55.5371ZM373.805 59C373.742 58.875 373.691 58.6523 373.652 58.332C373.148 58.8555 372.547 59.1172 371.848 59.1172C371.223 59.1172 370.709 58.9414 370.307 58.5898C369.908 58.2344 369.709 57.7852 369.709 57.2422C369.709 56.582 369.959 56.0703 370.459 55.707C370.963 55.3398 371.67 55.1562 372.58 55.1562H373.635V54.6582C373.635 54.2793 373.521 53.9785 373.295 53.7559C373.068 53.5293 372.734 53.416 372.293 53.416C371.906 53.416 371.582 53.5137 371.32 53.709C371.059 53.9043 370.928 54.1406 370.928 54.418H369.838C369.838 54.1016 369.949 53.7969 370.172 53.5039C370.398 53.207 370.703 52.9727 371.086 52.8008C371.473 52.6289 371.896 52.543 372.357 52.543C373.088 52.543 373.66 52.7266 374.074 53.0938C374.488 53.457 374.703 53.959 374.719 54.5996V57.5176C374.719 58.0996 374.793 58.5625 374.941 58.9062V59H373.805ZM372.006 58.1738C372.346 58.1738 372.668 58.0859 372.973 57.9102C373.277 57.7344 373.498 57.5059 373.635 57.2246V55.9238H372.785C371.457 55.9238 370.793 56.3125 370.793 57.0898C370.793 57.4297 370.906 57.6953 371.133 57.8867C371.359 58.0781 371.65 58.1738 372.006 58.1738ZM381.773 55.9004C381.773 56.8652 381.553 57.6426 381.111 58.2324C380.67 58.8223 380.072 59.1172 379.318 59.1172C378.549 59.1172 377.943 58.873 377.502 58.3848V61.4375H376.418V52.6602H377.408L377.461 53.3633C377.902 52.8164 378.516 52.543 379.301 52.543C380.062 52.543 380.664 52.8301 381.105 53.4043C381.551 53.9785 381.773 54.7773 381.773 55.8008V55.9004ZM380.689 55.7773C380.689 55.0625 380.537 54.498 380.232 54.084C379.928 53.6699 379.51 53.4629 378.979 53.4629C378.322 53.4629 377.83 53.7539 377.502 54.3359V57.3652C377.826 57.9434 378.322 58.2324 378.99 58.2324C379.51 58.2324 379.922 58.0273 380.227 57.6172C380.535 57.2031 380.689 56.5898 380.689 55.7773ZM388.512 55.9004C388.512 56.8652 388.291 57.6426 387.85 58.2324C387.408 58.8223 386.811 59.1172 386.057 59.1172C385.287 59.1172 384.682 58.873 384.24 58.3848V61.4375H383.156V52.6602H384.146L384.199 53.3633C384.641 52.8164 385.254 52.543 386.039 52.543C386.801 52.543 387.402 52.8301 387.844 53.4043C388.289 53.9785 388.512 54.7773 388.512 55.8008V55.9004ZM387.428 55.7773C387.428 55.0625 387.275 54.498 386.971 54.084C386.666 53.6699 386.248 53.4629 385.717 53.4629C385.061 53.4629 384.568 53.7539 384.24 54.3359V57.3652C384.564 57.9434 385.061 58.2324 385.729 58.2324C386.248 58.2324 386.66 58.0273 386.965 57.6172C387.273 57.2031 387.428 56.5898 387.428 55.7773ZM393.586 57.3184C393.586 57.0254 393.475 56.7988 393.252 56.6387C393.033 56.4746 392.648 56.334 392.098 56.2168C391.551 56.0996 391.115 55.959 390.791 55.7949C390.471 55.6309 390.232 55.4355 390.076 55.209C389.924 54.9824 389.848 54.7129 389.848 54.4004C389.848 53.8809 390.066 53.4414 390.504 53.082C390.945 52.7227 391.508 52.543 392.191 52.543C392.91 52.543 393.492 52.7285 393.938 53.0996C394.387 53.4707 394.611 53.9453 394.611 54.5234H393.521C393.521 54.2266 393.395 53.9707 393.141 53.7559C392.891 53.541 392.574 53.4336 392.191 53.4336C391.797 53.4336 391.488 53.5195 391.266 53.6914C391.043 53.8633 390.932 54.0879 390.932 54.3652C390.932 54.627 391.035 54.8242 391.242 54.957C391.449 55.0898 391.822 55.2168 392.361 55.3379C392.904 55.459 393.344 55.6035 393.68 55.7715C394.016 55.9395 394.264 56.1426 394.424 56.3809C394.588 56.6152 394.67 56.9023 394.67 57.2422C394.67 57.8086 394.443 58.2637 393.99 58.6074C393.537 58.9473 392.949 59.1172 392.227 59.1172C391.719 59.1172 391.27 59.0273 390.879 58.8477C390.488 58.668 390.182 58.418 389.959 58.0977C389.74 57.7734 389.631 57.4238 389.631 57.0488H390.715C390.734 57.4121 390.879 57.7012 391.148 57.916C391.422 58.127 391.781 58.2324 392.227 58.2324C392.637 58.2324 392.965 58.1504 393.211 57.9863C393.461 57.8184 393.586 57.5957 393.586 57.3184ZM400.078 52.6602L400.107 53.3633C400.572 52.8164 401.199 52.543 401.988 52.543C402.875 52.543 403.479 52.8828 403.799 53.5625C404.01 53.2578 404.283 53.0117 404.619 52.8242C404.959 52.6367 405.359 52.543 405.82 52.543C407.211 52.543 407.918 53.2793 407.941 54.752V59H406.857V54.8164C406.857 54.3633 406.754 54.0254 406.547 53.8027C406.34 53.5762 405.992 53.4629 405.504 53.4629C405.102 53.4629 404.768 53.584 404.502 53.8262C404.236 54.0645 404.082 54.3867 404.039 54.793V59H402.949V54.8457C402.949 53.9238 402.498 53.4629 401.596 53.4629C400.885 53.4629 400.398 53.7656 400.137 54.3711V59H399.053V52.6602H400.078ZM409.295 55.7715C409.295 55.1504 409.416 54.5918 409.658 54.0957C409.904 53.5996 410.244 53.2168 410.678 52.9473C411.115 52.6777 411.613 52.543 412.172 52.543C413.035 52.543 413.732 52.8418 414.264 53.4395C414.799 54.0371 415.066 54.832 415.066 55.8242V55.9004C415.066 56.5176 414.947 57.0723 414.709 57.5645C414.475 58.0527 414.137 58.4336 413.695 58.707C413.258 58.9805 412.754 59.1172 412.184 59.1172C411.324 59.1172 410.627 58.8184 410.092 58.2207C409.561 57.623 409.295 56.832 409.295 55.8477V55.7715ZM410.385 55.9004C410.385 56.6035 410.547 57.168 410.871 57.5938C411.199 58.0195 411.637 58.2324 412.184 58.2324C412.734 58.2324 413.172 58.0176 413.496 57.5879C413.82 57.1543 413.982 56.5488 413.982 55.7715C413.982 55.0762 413.816 54.5137 413.484 54.084C413.156 53.6504 412.719 53.4336 412.172 53.4336C411.637 53.4336 411.205 53.6465 410.877 54.0723C410.549 54.498 410.385 55.1074 410.385 55.9004ZM412.664 50H413.977L412.406 51.7227H411.533L412.664 50ZM418.424 57.5293L419.994 52.6602H421.102L418.828 59H418.002L415.705 52.6602H416.812L418.424 57.5293ZM423.322 59H422.238V52.6602H423.322V59ZM422.15 50.9785C422.15 50.8027 422.203 50.6543 422.309 50.5332C422.418 50.4121 422.578 50.3516 422.789 50.3516C423 50.3516 423.16 50.4121 423.27 50.5332C423.379 50.6543 423.434 50.8027 423.434 50.9785C423.434 51.1543 423.379 51.3008 423.27 51.418C423.16 51.5352 423 51.5938 422.789 51.5938C422.578 51.5938 422.418 51.5352 422.309 51.418C422.203 51.3008 422.15 51.1543 422.15 50.9785ZM426.24 59H425.156V50H426.24V59ZM430.611 59.1172C429.752 59.1172 429.053 58.8359 428.514 58.2734C427.975 57.707 427.705 56.9512 427.705 56.0059V55.8066C427.705 55.1777 427.824 54.6172 428.062 54.125C428.305 53.6289 428.641 53.2422 429.07 52.9648C429.504 52.6836 429.973 52.543 430.477 52.543C431.301 52.543 431.941 52.8145 432.398 53.3574C432.855 53.9004 433.084 54.6777 433.084 55.6895V56.1406H428.789C428.805 56.7656 428.986 57.2715 429.334 57.6582C429.686 58.041 430.131 58.2324 430.67 58.2324C431.053 58.2324 431.377 58.1543 431.643 57.998C431.908 57.8418 432.141 57.6348 432.34 57.377L433.002 57.8926C432.471 58.709 431.674 59.1172 430.611 59.1172ZM430.477 53.4336C430.039 53.4336 429.672 53.5938 429.375 53.9141C429.078 54.2305 428.895 54.6758 428.824 55.25H432V55.168C431.969 54.6172 431.82 54.1914 431.555 53.8906C431.289 53.5859 430.93 53.4336 430.477 53.4336ZM438.035 57.3184C438.035 57.0254 437.924 56.7988 437.701 56.6387C437.482 56.4746 437.098 56.334 436.547 56.2168C436 56.0996 435.564 55.959 435.24 55.7949C434.92 55.6309 434.682 55.4355 434.525 55.209C434.373 54.9824 434.297 54.7129 434.297 54.4004C434.297 53.8809 434.516 53.4414 434.953 53.082C435.395 52.7227 435.957 52.543 436.641 52.543C437.359 52.543 437.941 52.7285 438.387 53.0996C438.836 53.4707 439.061 53.9453 439.061 54.5234H437.971C437.971 54.2266 437.844 53.9707 437.59 53.7559C437.34 53.541 437.023 53.4336 436.641 53.4336C436.246 53.4336 435.938 53.5195 435.715 53.6914C435.492 53.8633 435.381 54.0879 435.381 54.3652C435.381 54.627 435.484 54.8242 435.691 54.957C435.898 55.0898 436.271 55.2168 436.811 55.3379C437.354 55.459 437.793 55.6035 438.129 55.7715C438.465 55.9395 438.713 56.1426 438.873 56.3809C439.037 56.6152 439.119 56.9023 439.119 57.2422C439.119 57.8086 438.893 58.2637 438.439 58.6074C437.986 58.9473 437.398 59.1172 436.676 59.1172C436.168 59.1172 435.719 59.0273 435.328 58.8477C434.938 58.668 434.631 58.418 434.408 58.0977C434.189 57.7734 434.08 57.4238 434.08 57.0488H435.164C435.184 57.4121 435.328 57.7012 435.598 57.916C435.871 58.127 436.23 58.2324 436.676 58.2324C437.086 58.2324 437.414 58.1504 437.66 57.9863C437.91 57.8184 438.035 57.5957 438.035 57.3184ZM440.496 60.6992L439.881 60.2773C440.248 59.7656 440.439 59.2383 440.455 58.6953V57.7168H441.516V58.5664C441.516 58.9609 441.418 59.3555 441.223 59.75C441.031 60.1445 440.789 60.4609 440.496 60.6992Z" fill="var(--text-color)" />
    <path d="M255.434 73.5059L256.652 68.6602H257.736L255.891 75H255.012L253.471 70.1953L251.971 75H251.092L249.252 68.6602H250.33L251.578 73.4062L253.055 68.6602H253.928L255.434 73.5059ZM261.475 75.1172C260.615 75.1172 259.916 74.8359 259.377 74.2734C258.838 73.707 258.568 72.9512 258.568 72.0059V71.8066C258.568 71.1777 258.688 70.6172 258.926 70.125C259.168 69.6289 259.504 69.2422 259.934 68.9648C260.367 68.6836 260.836 68.543 261.34 68.543C262.164 68.543 262.805 68.8145 263.262 69.3574C263.719 69.9004 263.947 70.6777 263.947 71.6895V72.1406H259.652C259.668 72.7656 259.85 73.2715 260.197 73.6582C260.549 74.041 260.994 74.2324 261.533 74.2324C261.916 74.2324 262.24 74.1543 262.506 73.998C262.771 73.8418 263.004 73.6348 263.203 73.377L263.865 73.8926C263.334 74.709 262.537 75.1172 261.475 75.1172ZM261.34 69.4336C260.902 69.4336 260.535 69.5938 260.238 69.9141C259.941 70.2305 259.758 70.6758 259.688 71.25H262.863V71.168C262.832 70.6172 262.684 70.1914 262.418 69.8906C262.152 69.5859 261.793 69.4336 261.34 69.4336ZM270.574 71.9004C270.574 72.8691 270.352 73.6484 269.906 74.2383C269.461 74.8242 268.863 75.1172 268.113 75.1172C267.312 75.1172 266.693 74.834 266.256 74.2676L266.203 75H265.207V66H266.291V69.3574C266.729 68.8145 267.332 68.543 268.102 68.543C268.871 68.543 269.475 68.834 269.912 69.416C270.354 69.998 270.574 70.7949 270.574 71.8066V71.9004ZM269.49 71.7773C269.49 71.0391 269.348 70.4688 269.062 70.0664C268.777 69.6641 268.367 69.4629 267.832 69.4629C267.117 69.4629 266.604 69.7949 266.291 70.459V73.2012C266.623 73.8652 267.141 74.1973 267.844 74.1973C268.363 74.1973 268.768 73.9961 269.057 73.5938C269.346 73.1914 269.49 72.5859 269.49 71.7773ZM271.91 76.6992L271.295 76.2773C271.662 75.7656 271.854 75.2383 271.869 74.6953V73.7168H272.93V74.5664C272.93 74.9609 272.832 75.3555 272.637 75.75C272.445 76.1445 272.203 76.4609 271.91 76.6992ZM277.014 71.7773C277.014 70.8047 277.244 70.0234 277.705 69.4336C278.166 68.8398 278.77 68.543 279.516 68.543C280.258 68.543 280.846 68.7969 281.279 69.3047V66H282.363V75H281.367L281.314 74.3203C280.881 74.8516 280.277 75.1172 279.504 75.1172C278.77 75.1172 278.17 74.8164 277.705 74.2148C277.244 73.6133 277.014 72.8281 277.014 71.8594V71.7773ZM278.098 71.9004C278.098 72.6191 278.246 73.1816 278.543 73.5879C278.84 73.9941 279.25 74.1973 279.773 74.1973C280.461 74.1973 280.963 73.8887 281.279 73.2715V70.3594C280.955 69.7617 280.457 69.4629 279.785 69.4629C279.254 69.4629 278.84 69.668 278.543 70.0781C278.246 70.4883 278.098 71.0957 278.098 71.9004ZM286.682 75.1172C285.822 75.1172 285.123 74.8359 284.584 74.2734C284.045 73.707 283.775 72.9512 283.775 72.0059V71.8066C283.775 71.1777 283.895 70.6172 284.133 70.125C284.375 69.6289 284.711 69.2422 285.141 68.9648C285.574 68.6836 286.043 68.543 286.547 68.543C287.371 68.543 288.012 68.8145 288.469 69.3574C288.926 69.9004 289.154 70.6777 289.154 71.6895V72.1406H284.859C284.875 72.7656 285.057 73.2715 285.404 73.6582C285.756 74.041 286.201 74.2324 286.74 74.2324C287.123 74.2324 287.447 74.1543 287.713 73.998C287.979 73.8418 288.211 73.6348 288.41 73.377L289.072 73.8926C288.541 74.709 287.744 75.1172 286.682 75.1172ZM286.547 69.4336C286.109 69.4336 285.742 69.5938 285.445 69.9141C285.148 70.2305 284.965 70.6758 284.895 71.25H288.07V71.168C288.039 70.6172 287.891 70.1914 287.625 69.8906C287.359 69.5859 287 69.4336 286.547 69.4336ZM294.105 73.3184C294.105 73.0254 293.994 72.7988 293.771 72.6387C293.553 72.4746 293.168 72.334 292.617 72.2168C292.07 72.0996 291.635 71.959 291.311 71.7949C290.99 71.6309 290.752 71.4355 290.596 71.209C290.443 70.9824 290.367 70.7129 290.367 70.4004C290.367 69.8809 290.586 69.4414 291.023 69.082C291.465 68.7227 292.027 68.543 292.711 68.543C293.43 68.543 294.012 68.7285 294.457 69.0996C294.906 69.4707 295.131 69.9453 295.131 70.5234H294.041C294.041 70.2266 293.914 69.9707 293.66 69.7559C293.41 69.541 293.094 69.4336 292.711 69.4336C292.316 69.4336 292.008 69.5195 291.785 69.6914C291.562 69.8633 291.451 70.0879 291.451 70.3652C291.451 70.627 291.555 70.8242 291.762 70.957C291.969 71.0898 292.342 71.2168 292.881 71.3379C293.424 71.459 293.863 71.6035 294.199 71.7715C294.535 71.9395 294.783 72.1426 294.943 72.3809C295.107 72.6152 295.189 72.9023 295.189 73.2422C295.189 73.8086 294.963 74.2637 294.51 74.6074C294.057 74.9473 293.469 75.1172 292.746 75.1172C292.238 75.1172 291.789 75.0273 291.398 74.8477C291.008 74.668 290.701 74.418 290.479 74.0977C290.26 73.7734 290.15 73.4238 290.15 73.0488H291.234C291.254 73.4121 291.398 73.7012 291.668 73.916C291.941 74.127 292.301 74.2324 292.746 74.2324C293.156 74.2324 293.484 74.1504 293.73 73.9863C293.98 73.8184 294.105 73.5957 294.105 73.3184ZM300.516 75C300.453 74.875 300.402 74.6523 300.363 74.332C299.859 74.8555 299.258 75.1172 298.559 75.1172C297.934 75.1172 297.42 74.9414 297.018 74.5898C296.619 74.2344 296.42 73.7852 296.42 73.2422C296.42 72.582 296.67 72.0703 297.17 71.707C297.674 71.3398 298.381 71.1562 299.291 71.1562H300.346V70.6582C300.346 70.2793 300.232 69.9785 300.006 69.7559C299.779 69.5293 299.445 69.416 299.004 69.416C298.617 69.416 298.293 69.5137 298.031 69.709C297.77 69.9043 297.639 70.1406 297.639 70.418H296.549C296.549 70.1016 296.66 69.7969 296.883 69.5039C297.109 69.207 297.414 68.9727 297.797 68.8008C298.184 68.6289 298.607 68.543 299.068 68.543C299.799 68.543 300.371 68.7266 300.785 69.0938C301.199 69.457 301.414 69.959 301.43 70.5996V73.5176C301.43 74.0996 301.504 74.5625 301.652 74.9062V75H300.516ZM298.717 74.1738C299.057 74.1738 299.379 74.0859 299.684 73.9102C299.988 73.7344 300.209 73.5059 300.346 73.2246V71.9238H299.496C298.168 71.9238 297.504 72.3125 297.504 73.0898C297.504 73.4297 297.617 73.6953 297.844 73.8867C298.07 74.0781 298.361 74.1738 298.717 74.1738ZM306.193 69.6328C306.029 69.6055 305.852 69.5918 305.66 69.5918C304.949 69.5918 304.467 69.8945 304.213 70.5V75H303.129V68.6602H304.184L304.201 69.3926C304.557 68.8262 305.061 68.543 305.713 68.543C305.924 68.543 306.084 68.5703 306.193 68.625V69.6328ZM310.26 69.6328C310.096 69.6055 309.918 69.5918 309.727 69.5918C309.016 69.5918 308.533 69.8945 308.279 70.5V75H307.195V68.6602H308.25L308.268 69.3926C308.623 68.8262 309.127 68.543 309.779 68.543C309.99 68.543 310.15 68.5703 310.26 68.625V69.6328ZM310.857 71.7715C310.857 71.1504 310.979 70.5918 311.221 70.0957C311.467 69.5996 311.807 69.2168 312.24 68.9473C312.678 68.6777 313.176 68.543 313.734 68.543C314.598 68.543 315.295 68.8418 315.826 69.4395C316.361 70.0371 316.629 70.832 316.629 71.8242V71.9004C316.629 72.5176 316.51 73.0723 316.271 73.5645C316.037 74.0527 315.699 74.4336 315.258 74.707C314.82 74.9805 314.316 75.1172 313.746 75.1172C312.887 75.1172 312.189 74.8184 311.654 74.2207C311.123 73.623 310.857 72.832 310.857 71.8477V71.7715ZM311.947 71.9004C311.947 72.6035 312.109 73.168 312.434 73.5938C312.762 74.0195 313.199 74.2324 313.746 74.2324C314.297 74.2324 314.734 74.0176 315.059 73.5879C315.383 73.1543 315.545 72.5488 315.545 71.7715C315.545 71.0762 315.379 70.5137 315.047 70.084C314.719 69.6504 314.281 69.4336 313.734 69.4336C313.199 69.4336 312.768 69.6465 312.439 70.0723C312.111 70.498 311.947 71.1074 311.947 71.9004ZM319.166 75H318.082V66H319.166V75ZM322.084 75H321V66H322.084V75ZM323.537 71.7715C323.537 71.1504 323.658 70.5918 323.9 70.0957C324.146 69.5996 324.486 69.2168 324.92 68.9473C325.357 68.6777 325.855 68.543 326.414 68.543C327.277 68.543 327.975 68.8418 328.506 69.4395C329.041 70.0371 329.309 70.832 329.309 71.8242V71.9004C329.309 72.5176 329.189 73.0723 328.951 73.5645C328.717 74.0527 328.379 74.4336 327.938 74.707C327.5 74.9805 326.996 75.1172 326.426 75.1172C325.566 75.1172 324.869 74.8184 324.334 74.2207C323.803 73.623 323.537 72.832 323.537 71.8477V71.7715ZM324.627 71.9004C324.627 72.6035 324.789 73.168 325.113 73.5938C325.441 74.0195 325.879 74.2324 326.426 74.2324C326.977 74.2324 327.414 74.0176 327.738 73.5879C328.062 73.1543 328.225 72.5488 328.225 71.7715C328.225 71.0762 328.059 70.5137 327.727 70.084C327.398 69.6504 326.961 69.4336 326.414 69.4336C325.879 69.4336 325.447 69.6465 325.119 70.0723C324.791 70.498 324.627 71.1074 324.627 71.9004ZM333.17 71.5957C333.17 72.4668 333.055 73.3027 332.824 74.1035C332.598 74.9004 332.248 75.6367 331.775 76.3125C331.307 76.9883 330.814 77.4688 330.299 77.7539L330.07 77.0918C330.672 76.6309 331.154 75.916 331.518 74.9473C331.885 73.9746 332.072 72.8965 332.08 71.7129V71.5254C332.08 70.7051 331.994 69.9434 331.822 69.2402C331.65 68.5332 331.41 67.9004 331.102 67.3418C330.797 66.7832 330.453 66.3477 330.07 66.0352L330.299 65.373C330.814 65.6582 331.305 66.1348 331.77 66.8027C332.238 67.4707 332.588 68.207 332.818 69.0117C333.053 69.8164 333.17 70.6777 333.17 71.5957Z" fill="var(--text-color)" />
    <path d="M238 61.8C241.314 61.8 244 59.1138 244 55.8C244 52.4863 241.314 49.8 238 49.8C234.686 49.8 232 52.4863 232 55.8C232 59.1138 234.686 61.8 238 61.8Z" fill="#DC3912" />
    <path d="M251.443 85.4688L254.232 92.4297L257.021 85.4688H258.48V94H257.355V90.6777L257.461 87.0918L254.66 94H253.799L251.004 87.1094L251.115 90.6777V94H249.99V85.4688H251.443ZM264.211 94C264.148 93.875 264.098 93.6523 264.059 93.332C263.555 93.8555 262.953 94.1172 262.254 94.1172C261.629 94.1172 261.115 93.9414 260.713 93.5898C260.314 93.2344 260.115 92.7852 260.115 92.2422C260.115 91.582 260.365 91.0703 260.865 90.707C261.369 90.3398 262.076 90.1562 262.986 90.1562H264.041V89.6582C264.041 89.2793 263.928 88.9785 263.701 88.7559C263.475 88.5293 263.141 88.416 262.699 88.416C262.312 88.416 261.988 88.5137 261.727 88.709C261.465 88.9043 261.334 89.1406 261.334 89.418H260.244C260.244 89.1016 260.355 88.7969 260.578 88.5039C260.805 88.207 261.109 87.9727 261.492 87.8008C261.879 87.6289 262.303 87.543 262.764 87.543C263.494 87.543 264.066 87.7266 264.48 88.0938C264.895 88.457 265.109 88.959 265.125 89.5996V92.5176C265.125 93.0996 265.199 93.5625 265.348 93.9062V94H264.211ZM262.412 93.1738C262.752 93.1738 263.074 93.0859 263.379 92.9102C263.684 92.7344 263.904 92.5059 264.041 92.2246V90.9238H263.191C261.863 90.9238 261.199 91.3125 261.199 92.0898C261.199 92.4297 261.312 92.6953 261.539 92.8867C261.766 93.0781 262.057 93.1738 262.412 93.1738ZM269.889 88.6328C269.725 88.6055 269.547 88.5918 269.355 88.5918C268.645 88.5918 268.162 88.8945 267.908 89.5V94H266.824V87.6602H267.879L267.896 88.3926C268.252 87.8262 268.756 87.543 269.408 87.543C269.619 87.543 269.779 87.5703 269.889 87.625V88.6328ZM272.66 91.0645L271.98 91.7734V94H270.896V85H271.98V90.4434L272.561 89.7461L274.535 87.6602H275.854L273.387 90.3086L276.141 94H274.869L272.66 91.0645ZM279.486 94.1172C278.627 94.1172 277.928 93.8359 277.389 93.2734C276.85 92.707 276.58 91.9512 276.58 91.0059V90.8066C276.58 90.1777 276.699 89.6172 276.938 89.125C277.18 88.6289 277.516 88.2422 277.945 87.9648C278.379 87.6836 278.848 87.543 279.352 87.543C280.176 87.543 280.816 87.8145 281.273 88.3574C281.73 88.9004 281.959 89.6777 281.959 90.6895V91.1406H277.664C277.68 91.7656 277.861 92.2715 278.209 92.6582C278.561 93.041 279.006 93.2324 279.545 93.2324C279.928 93.2324 280.252 93.1543 280.518 92.998C280.783 92.8418 281.016 92.6348 281.215 92.377L281.877 92.8926C281.346 93.709 280.549 94.1172 279.486 94.1172ZM279.352 88.4336C278.914 88.4336 278.547 88.5938 278.25 88.9141C277.953 89.2305 277.77 89.6758 277.699 90.25H280.875V90.168C280.844 89.6172 280.695 89.1914 280.43 88.8906C280.164 88.5859 279.805 88.4336 279.352 88.4336ZM284.689 86.125V87.6602H285.873V88.498H284.689V92.4297C284.689 92.6836 284.742 92.875 284.848 93.0039C284.953 93.1289 285.133 93.1914 285.387 93.1914C285.512 93.1914 285.684 93.168 285.902 93.1211V94C285.617 94.0781 285.34 94.1172 285.07 94.1172C284.586 94.1172 284.221 93.9707 283.975 93.6777C283.729 93.3848 283.605 92.9688 283.605 92.4297V88.498H282.451V87.6602H283.605V86.125H284.689ZM288.322 94H287.238V87.6602H288.322V94ZM287.15 85.9785C287.15 85.8027 287.203 85.6543 287.309 85.5332C287.418 85.4121 287.578 85.3516 287.789 85.3516C288 85.3516 288.16 85.4121 288.27 85.5332C288.379 85.6543 288.434 85.8027 288.434 85.9785C288.434 86.1543 288.379 86.3008 288.27 86.418C288.16 86.5352 288 86.5938 287.789 86.5938C287.578 86.5938 287.418 86.5352 287.309 86.418C287.203 86.3008 287.15 86.1543 287.15 85.9785ZM291.088 87.6602L291.123 88.457C291.607 87.8477 292.24 87.543 293.021 87.543C294.361 87.543 295.037 88.2988 295.049 89.8105V94H293.965V89.8047C293.961 89.3477 293.855 89.0098 293.648 88.791C293.445 88.5723 293.127 88.4629 292.693 88.4629C292.342 88.4629 292.033 88.5566 291.768 88.7441C291.502 88.9316 291.295 89.1777 291.146 89.4824V94H290.062V87.6602H291.088ZM296.426 90.7773C296.426 89.7891 296.654 89.0039 297.111 88.4219C297.568 87.8359 298.174 87.543 298.928 87.543C299.701 87.543 300.305 87.8164 300.738 88.3633L300.791 87.6602H301.781V93.8477C301.781 94.668 301.537 95.3145 301.049 95.7871C300.564 96.2598 299.912 96.4961 299.092 96.4961C298.635 96.4961 298.188 96.3984 297.75 96.2031C297.312 96.0078 296.979 95.7402 296.748 95.4004L297.311 94.75C297.775 95.3242 298.344 95.6113 299.016 95.6113C299.543 95.6113 299.953 95.4629 300.246 95.166C300.543 94.8691 300.691 94.4512 300.691 93.9121V93.3672C300.258 93.8672 299.666 94.1172 298.916 94.1172C298.174 94.1172 297.572 93.8184 297.111 93.2207C296.654 92.623 296.426 91.8086 296.426 90.7773ZM297.516 90.9004C297.516 91.6152 297.662 92.1777 297.955 92.5879C298.248 92.9941 298.658 93.1973 299.186 93.1973C299.869 93.1973 300.371 92.8867 300.691 92.2656V89.3711C300.359 88.7656 299.861 88.4629 299.197 88.4629C298.67 88.4629 298.258 88.668 297.961 89.0781C297.664 89.4883 297.516 90.0957 297.516 90.9004ZM306.135 90.7773C306.135 89.8047 306.365 89.0234 306.826 88.4336C307.287 87.8398 307.891 87.543 308.637 87.543C309.379 87.543 309.967 87.7969 310.4 88.3047V85H311.484V94H310.488L310.436 93.3203C310.002 93.8516 309.398 94.1172 308.625 94.1172C307.891 94.1172 307.291 93.8164 306.826 93.2148C306.365 92.6133 306.135 91.8281 306.135 90.8594V90.7773ZM307.219 90.9004C307.219 91.6191 307.367 92.1816 307.664 92.5879C307.961 92.9941 308.371 93.1973 308.895 93.1973C309.582 93.1973 310.084 92.8887 310.4 92.2715V89.3594C310.076 88.7617 309.578 88.4629 308.906 88.4629C308.375 88.4629 307.961 88.668 307.664 89.0781C307.367 89.4883 307.219 90.0957 307.219 90.9004ZM314.35 94H313.266V87.6602H314.35V94ZM313.178 85.9785C313.178 85.8027 313.23 85.6543 313.336 85.5332C313.445 85.4121 313.605 85.3516 313.816 85.3516C314.027 85.3516 314.188 85.4121 314.297 85.5332C314.406 85.6543 314.461 85.8027 314.461 85.9785C314.461 86.1543 314.406 86.3008 314.297 86.418C314.188 86.5352 314.027 86.5938 313.816 86.5938C313.605 86.5938 313.445 86.5352 313.336 86.418C313.23 86.3008 313.178 86.1543 313.178 85.9785ZM315.832 90.7773C315.832 89.7891 316.061 89.0039 316.518 88.4219C316.975 87.8359 317.58 87.543 318.334 87.543C319.107 87.543 319.711 87.8164 320.145 88.3633L320.197 87.6602H321.188V93.8477C321.188 94.668 320.943 95.3145 320.455 95.7871C319.971 96.2598 319.318 96.4961 318.498 96.4961C318.041 96.4961 317.594 96.3984 317.156 96.2031C316.719 96.0078 316.385 95.7402 316.154 95.4004L316.717 94.75C317.182 95.3242 317.75 95.6113 318.422 95.6113C318.949 95.6113 319.359 95.4629 319.652 95.166C319.949 94.8691 320.098 94.4512 320.098 93.9121V93.3672C319.664 93.8672 319.072 94.1172 318.322 94.1172C317.58 94.1172 316.979 93.8184 316.518 93.2207C316.061 92.623 315.832 91.8086 315.832 90.7773ZM316.922 90.9004C316.922 91.6152 317.068 92.1777 317.361 92.5879C317.654 92.9941 318.064 93.1973 318.592 93.1973C319.275 93.1973 319.777 92.8867 320.098 92.2656V89.3711C319.766 88.7656 319.268 88.4629 318.604 88.4629C318.076 88.4629 317.664 88.668 317.367 89.0781C317.07 89.4883 316.922 90.0957 316.922 90.9004ZM324.006 94H322.922V87.6602H324.006V94ZM322.834 85.9785C322.834 85.8027 322.887 85.6543 322.992 85.5332C323.102 85.4121 323.262 85.3516 323.473 85.3516C323.684 85.3516 323.844 85.4121 323.953 85.5332C324.062 85.6543 324.117 85.8027 324.117 85.9785C324.117 86.1543 324.062 86.3008 323.953 86.418C323.844 86.5352 323.684 86.5938 323.473 86.5938C323.262 86.5938 323.102 86.5352 322.992 86.418C322.887 86.3008 322.834 86.1543 322.834 85.9785ZM327.217 86.125V87.6602H328.4V88.498H327.217V92.4297C327.217 92.6836 327.27 92.875 327.375 93.0039C327.48 93.1289 327.66 93.1914 327.914 93.1914C328.039 93.1914 328.211 93.168 328.43 93.1211V94C328.145 94.0781 327.867 94.1172 327.598 94.1172C327.113 94.1172 326.748 93.9707 326.502 93.6777C326.256 93.3848 326.133 92.9688 326.133 92.4297V88.498H324.979V87.6602H326.133V86.125H327.217ZM333.586 94C333.523 93.875 333.473 93.6523 333.434 93.332C332.93 93.8555 332.328 94.1172 331.629 94.1172C331.004 94.1172 330.49 93.9414 330.088 93.5898C329.689 93.2344 329.49 92.7852 329.49 92.2422C329.49 91.582 329.74 91.0703 330.24 90.707C330.744 90.3398 331.451 90.1562 332.361 90.1562H333.416V89.6582C333.416 89.2793 333.303 88.9785 333.076 88.7559C332.85 88.5293 332.516 88.416 332.074 88.416C331.688 88.416 331.363 88.5137 331.102 88.709C330.84 88.9043 330.709 89.1406 330.709 89.418H329.619C329.619 89.1016 329.73 88.7969 329.953 88.5039C330.18 88.207 330.484 87.9727 330.867 87.8008C331.254 87.6289 331.678 87.543 332.139 87.543C332.869 87.543 333.441 87.7266 333.855 88.0938C334.27 88.457 334.484 88.959 334.5 89.5996V92.5176C334.5 93.0996 334.574 93.5625 334.723 93.9062V94H333.586ZM331.787 93.1738C332.127 93.1738 332.449 93.0859 332.754 92.9102C333.059 92.7344 333.279 92.5059 333.416 92.2246V90.9238H332.566C331.238 90.9238 330.574 91.3125 330.574 92.0898C330.574 92.4297 330.688 92.6953 330.914 92.8867C331.141 93.0781 331.432 93.1738 331.787 93.1738ZM337.377 94H336.293V85H337.377V94Z" fill="var(--text-color)" />
    <path d="M238 96.8C241.314 96.8 244 94.1138 244 90.8C244 87.4863 241.314 84.8 238 84.8C234.686 84.8 232 87.4863 232 90.8C232 94.1138 234.686 96.8 238 96.8Z" fill="#FF9900" />
    <path d="M252.814 111.506L255.252 104.469H256.482L253.318 113H252.322L249.164 104.469H250.389L252.814 111.506ZM258.639 113H257.555V106.66H258.639V113ZM257.467 104.979C257.467 104.803 257.52 104.654 257.625 104.533C257.734 104.412 257.895 104.352 258.105 104.352C258.316 104.352 258.477 104.412 258.586 104.533C258.695 104.654 258.75 104.803 258.75 104.979C258.75 105.154 258.695 105.301 258.586 105.418C258.477 105.535 258.316 105.594 258.105 105.594C257.895 105.594 257.734 105.535 257.625 105.418C257.52 105.301 257.467 105.154 257.467 104.979ZM260.115 109.777C260.115 108.805 260.346 108.023 260.807 107.434C261.268 106.84 261.871 106.543 262.617 106.543C263.359 106.543 263.947 106.797 264.381 107.305V104H265.465V113H264.469L264.416 112.32C263.982 112.852 263.379 113.117 262.605 113.117C261.871 113.117 261.271 112.816 260.807 112.215C260.346 111.613 260.115 110.828 260.115 109.859V109.777ZM261.199 109.9C261.199 110.619 261.348 111.182 261.645 111.588C261.941 111.994 262.352 112.197 262.875 112.197C263.562 112.197 264.064 111.889 264.381 111.271V108.359C264.057 107.762 263.559 107.463 262.887 107.463C262.355 107.463 261.941 107.668 261.645 108.078C261.348 108.488 261.199 109.096 261.199 109.9ZM269.783 113.117C268.924 113.117 268.225 112.836 267.686 112.273C267.146 111.707 266.877 110.951 266.877 110.006V109.807C266.877 109.178 266.996 108.617 267.234 108.125C267.477 107.629 267.812 107.242 268.242 106.965C268.676 106.684 269.145 106.543 269.648 106.543C270.473 106.543 271.113 106.814 271.57 107.357C272.027 107.9 272.256 108.678 272.256 109.689V110.141H267.961C267.977 110.766 268.158 111.271 268.506 111.658C268.857 112.041 269.303 112.232 269.842 112.232C270.225 112.232 270.549 112.154 270.814 111.998C271.08 111.842 271.312 111.635 271.512 111.377L272.174 111.893C271.643 112.709 270.846 113.117 269.783 113.117ZM269.648 107.434C269.211 107.434 268.844 107.594 268.547 107.914C268.25 108.23 268.066 108.676 267.996 109.25H271.172V109.168C271.141 108.617 270.992 108.191 270.727 107.891C270.461 107.586 270.102 107.434 269.648 107.434ZM273.229 109.771C273.229 109.15 273.35 108.592 273.592 108.096C273.838 107.6 274.178 107.217 274.611 106.947C275.049 106.678 275.547 106.543 276.105 106.543C276.969 106.543 277.666 106.842 278.197 107.439C278.732 108.037 279 108.832 279 109.824V109.9C279 110.518 278.881 111.072 278.643 111.564C278.408 112.053 278.07 112.434 277.629 112.707C277.191 112.98 276.688 113.117 276.117 113.117C275.258 113.117 274.561 112.818 274.025 112.221C273.494 111.623 273.229 110.832 273.229 109.848V109.771ZM274.318 109.9C274.318 110.604 274.48 111.168 274.805 111.594C275.133 112.02 275.57 112.232 276.117 112.232C276.668 112.232 277.105 112.018 277.43 111.588C277.754 111.154 277.916 110.549 277.916 109.771C277.916 109.076 277.75 108.514 277.418 108.084C277.09 107.65 276.652 107.434 276.105 107.434C275.57 107.434 275.139 107.646 274.811 108.072C274.482 108.498 274.318 109.107 274.318 109.9ZM281.479 106.66V113.732C281.479 114.951 280.926 115.561 279.82 115.561C279.582 115.561 279.361 115.525 279.158 115.455V114.588C279.283 114.619 279.447 114.635 279.65 114.635C279.893 114.635 280.076 114.568 280.201 114.436C280.33 114.307 280.395 114.08 280.395 113.756V106.66H281.479ZM280.283 104.979C280.283 104.807 280.336 104.66 280.441 104.539C280.551 104.414 280.709 104.352 280.916 104.352C281.127 104.352 281.287 104.412 281.396 104.533C281.506 104.654 281.561 104.803 281.561 104.979C281.561 105.154 281.506 105.301 281.396 105.418C281.287 105.535 281.127 105.594 280.916 105.594C280.705 105.594 280.547 105.535 280.441 105.418C280.336 105.301 280.283 105.154 280.283 104.979ZM287.145 112.373C286.723 112.869 286.104 113.117 285.287 113.117C284.611 113.117 284.096 112.922 283.74 112.531C283.389 112.137 283.211 111.555 283.207 110.785V106.66H284.291V110.756C284.291 111.717 284.682 112.197 285.463 112.197C286.291 112.197 286.842 111.889 287.115 111.271V106.66H288.199V113H287.168L287.145 112.373ZM292.482 113.117C291.623 113.117 290.924 112.836 290.385 112.273C289.846 111.707 289.576 110.951 289.576 110.006V109.807C289.576 109.178 289.695 108.617 289.934 108.125C290.176 107.629 290.512 107.242 290.941 106.965C291.375 106.684 291.844 106.543 292.348 106.543C293.172 106.543 293.812 106.814 294.27 107.357C294.727 107.9 294.955 108.678 294.955 109.689V110.141H290.66C290.676 110.766 290.857 111.271 291.205 111.658C291.557 112.041 292.002 112.232 292.541 112.232C292.924 112.232 293.248 112.154 293.514 111.998C293.779 111.842 294.012 111.635 294.211 111.377L294.873 111.893C294.342 112.709 293.545 113.117 292.482 113.117ZM292.348 107.434C291.91 107.434 291.543 107.594 291.246 107.914C290.949 108.23 290.766 108.676 290.695 109.25H293.871V109.168C293.84 108.617 293.691 108.191 293.426 107.891C293.16 107.586 292.801 107.434 292.348 107.434ZM295.957 109.777C295.957 108.789 296.186 108.004 296.643 107.422C297.1 106.836 297.705 106.543 298.459 106.543C299.232 106.543 299.836 106.816 300.27 107.363L300.322 106.66H301.312V112.848C301.312 113.668 301.068 114.314 300.58 114.787C300.096 115.26 299.443 115.496 298.623 115.496C298.166 115.496 297.719 115.398 297.281 115.203C296.844 115.008 296.51 114.74 296.279 114.4L296.842 113.75C297.307 114.324 297.875 114.611 298.547 114.611C299.074 114.611 299.484 114.463 299.777 114.166C300.074 113.869 300.223 113.451 300.223 112.912V112.367C299.789 112.867 299.197 113.117 298.447 113.117C297.705 113.117 297.104 112.818 296.643 112.221C296.186 111.623 295.957 110.809 295.957 109.777ZM297.047 109.9C297.047 110.615 297.193 111.178 297.486 111.588C297.779 111.994 298.189 112.197 298.717 112.197C299.4 112.197 299.902 111.887 300.223 111.266V108.371C299.891 107.766 299.393 107.463 298.729 107.463C298.201 107.463 297.789 107.668 297.492 108.078C297.195 108.488 297.047 109.096 297.047 109.9ZM302.666 109.771C302.666 109.15 302.787 108.592 303.029 108.096C303.275 107.6 303.615 107.217 304.049 106.947C304.486 106.678 304.984 106.543 305.543 106.543C306.406 106.543 307.104 106.842 307.635 107.439C308.17 108.037 308.438 108.832 308.438 109.824V109.9C308.438 110.518 308.318 111.072 308.08 111.564C307.846 112.053 307.508 112.434 307.066 112.707C306.629 112.98 306.125 113.117 305.555 113.117C304.695 113.117 303.998 112.818 303.463 112.221C302.932 111.623 302.666 110.832 302.666 109.848V109.771ZM303.756 109.9C303.756 110.604 303.918 111.168 304.242 111.594C304.57 112.02 305.008 112.232 305.555 112.232C306.105 112.232 306.543 112.018 306.867 111.588C307.191 111.154 307.354 110.549 307.354 109.771C307.354 109.076 307.188 108.514 306.855 108.084C306.527 107.65 306.09 107.434 305.543 107.434C305.008 107.434 304.576 107.646 304.248 108.072C303.92 108.498 303.756 109.107 303.756 109.9ZM313.488 111.318C313.488 111.025 313.377 110.799 313.154 110.639C312.936 110.475 312.551 110.334 312 110.217C311.453 110.1 311.018 109.959 310.693 109.795C310.373 109.631 310.135 109.436 309.979 109.209C309.826 108.982 309.75 108.713 309.75 108.4C309.75 107.881 309.969 107.441 310.406 107.082C310.848 106.723 311.41 106.543 312.094 106.543C312.812 106.543 313.395 106.729 313.84 107.1C314.289 107.471 314.514 107.945 314.514 108.523H313.424C313.424 108.227 313.297 107.971 313.043 107.756C312.793 107.541 312.477 107.434 312.094 107.434C311.699 107.434 311.391 107.52 311.168 107.691C310.945 107.863 310.834 108.088 310.834 108.365C310.834 108.627 310.938 108.824 311.145 108.957C311.352 109.09 311.725 109.217 312.264 109.338C312.807 109.459 313.246 109.604 313.582 109.771C313.918 109.939 314.166 110.143 314.326 110.381C314.49 110.615 314.572 110.902 314.572 111.242C314.572 111.809 314.346 112.264 313.893 112.607C313.439 112.947 312.852 113.117 312.129 113.117C311.621 113.117 311.172 113.027 310.781 112.848C310.391 112.668 310.084 112.418 309.861 112.098C309.643 111.773 309.533 111.424 309.533 111.049H310.617C310.637 111.412 310.781 111.701 311.051 111.916C311.324 112.127 311.684 112.232 312.129 112.232C312.539 112.232 312.867 112.15 313.113 111.986C313.363 111.818 313.488 111.596 313.488 111.318Z" fill="var(--text-color)" />
    <path d="M238 115.8C241.314 115.8 244 113.114 244 109.8C244 106.486 241.314 103.8 238 103.8C234.686 103.8 232 106.486 232 109.8C232 113.114 234.686 115.8 238 115.8Z" fill="#109618" />
    <path d="M254.701 129.773H251.127L250.324 132H249.164L252.422 123.469H253.406L256.67 132H255.516L254.701 129.773ZM251.467 128.848H254.367L252.914 124.857L251.467 128.848ZM261.492 131.373C261.07 131.869 260.451 132.117 259.635 132.117C258.959 132.117 258.443 131.922 258.088 131.531C257.736 131.137 257.559 130.555 257.555 129.785V125.66H258.639V129.756C258.639 130.717 259.029 131.197 259.811 131.197C260.639 131.197 261.189 130.889 261.463 130.271V125.66H262.547V132H261.516L261.492 131.373ZM260.613 123H261.926L260.355 124.723H259.482L260.613 123ZM265.225 125.66L265.26 126.457C265.744 125.848 266.377 125.543 267.158 125.543C268.498 125.543 269.174 126.299 269.186 127.811V132H268.102V127.805C268.098 127.348 267.992 127.01 267.785 126.791C267.582 126.572 267.264 126.463 266.83 126.463C266.479 126.463 266.17 126.557 265.904 126.744C265.639 126.932 265.432 127.178 265.283 127.482V132H264.199V125.66H265.225ZM274.822 125.66L274.857 126.457C275.342 125.848 275.975 125.543 276.756 125.543C278.096 125.543 278.771 126.299 278.783 127.811V132H277.699V127.805C277.695 127.348 277.59 127.01 277.383 126.791C277.18 126.572 276.861 126.463 276.428 126.463C276.076 126.463 275.768 126.557 275.502 126.744C275.236 126.932 275.029 127.178 274.881 127.482V132H273.797V125.66H274.822ZM280.131 128.771C280.131 128.15 280.252 127.592 280.494 127.096C280.74 126.6 281.08 126.217 281.514 125.947C281.951 125.678 282.449 125.543 283.008 125.543C283.871 125.543 284.568 125.842 285.1 126.439C285.635 127.037 285.902 127.832 285.902 128.824V128.9C285.902 129.518 285.783 130.072 285.545 130.564C285.311 131.053 284.973 131.434 284.531 131.707C284.094 131.98 283.59 132.117 283.02 132.117C282.16 132.117 281.463 131.818 280.928 131.221C280.396 130.623 280.131 129.832 280.131 128.848V128.771ZM281.221 128.9C281.221 129.604 281.383 130.168 281.707 130.594C282.035 131.02 282.473 131.232 283.02 131.232C283.57 131.232 284.008 131.018 284.332 130.588C284.656 130.154 284.818 129.549 284.818 128.771C284.818 128.076 284.652 127.514 284.32 127.084C283.992 126.65 283.555 126.434 283.008 126.434C282.473 126.434 282.041 126.646 281.713 127.072C281.385 127.498 281.221 128.107 281.221 128.9ZM293.93 130.318C293.93 130.025 293.818 129.799 293.596 129.639C293.377 129.475 292.992 129.334 292.441 129.217C291.895 129.1 291.459 128.959 291.135 128.795C290.814 128.631 290.576 128.436 290.42 128.209C290.268 127.982 290.191 127.713 290.191 127.4C290.191 126.881 290.41 126.441 290.848 126.082C291.289 125.723 291.852 125.543 292.535 125.543C293.254 125.543 293.836 125.729 294.281 126.1C294.73 126.471 294.955 126.945 294.955 127.523H293.865C293.865 127.227 293.738 126.971 293.484 126.756C293.234 126.541 292.918 126.434 292.535 126.434C292.141 126.434 291.832 126.52 291.609 126.691C291.387 126.863 291.275 127.088 291.275 127.365C291.275 127.627 291.379 127.824 291.586 127.957C291.793 128.09 292.166 128.217 292.705 128.338C293.248 128.459 293.688 128.604 294.023 128.771C294.359 128.939 294.607 129.143 294.768 129.381C294.932 129.615 295.014 129.902 295.014 130.242C295.014 130.809 294.787 131.264 294.334 131.607C293.881 131.947 293.293 132.117 292.57 132.117C292.062 132.117 291.613 132.027 291.223 131.848C290.832 131.668 290.525 131.418 290.303 131.098C290.084 130.773 289.975 130.424 289.975 130.049H291.059C291.078 130.412 291.223 130.701 291.492 130.916C291.766 131.127 292.125 131.232 292.57 131.232C292.98 131.232 293.309 131.15 293.555 130.986C293.805 130.818 293.93 130.596 293.93 130.318ZM299.057 132.117C298.197 132.117 297.498 131.836 296.959 131.273C296.42 130.707 296.15 129.951 296.15 129.006V128.807C296.15 128.178 296.27 127.617 296.508 127.125C296.75 126.629 297.086 126.242 297.516 125.965C297.949 125.684 298.418 125.543 298.922 125.543C299.746 125.543 300.387 125.814 300.844 126.357C301.301 126.9 301.529 127.678 301.529 128.689V129.141H297.234C297.25 129.766 297.432 130.271 297.779 130.658C298.131 131.041 298.576 131.232 299.115 131.232C299.498 131.232 299.822 131.154 300.088 130.998C300.354 130.842 300.586 130.635 300.785 130.377L301.447 130.893C300.916 131.709 300.119 132.117 299.057 132.117ZM298.922 126.434C298.484 126.434 298.117 126.594 297.82 126.914C297.523 127.23 297.34 127.676 297.27 128.25H300.445V128.168C300.414 127.617 300.266 127.191 300 126.891C299.734 126.586 299.375 126.434 298.922 126.434ZM299.449 123H300.762L299.191 124.723H298.318L299.449 123Z" fill="var(--text-color)" />
    <path d="M238 134.8C241.314 134.8 244 132.114 244 128.8C244 125.486 241.314 122.8 238 122.8C234.686 122.8 232 125.486 232 128.8C232 132.114 234.686 134.8 238 134.8Z" fill="#990099" />
    <path d="M91 92H181C181 105.521 177.954 118.868 172.087 131.05C166.221 143.231 157.685 153.935 147.114 162.365L91 92Z" fill="#3366CC" stroke="white" />
    <path d="M132.379 121.257H131.29V114.032L129.104 114.835V113.851L132.21 112.685H132.379V121.257ZM140.131 118.392H141.315V119.277H140.131V121.257H139.042V119.277H135.157V118.638L138.977 112.726H140.131V118.392ZM136.387 118.392H139.042V114.208L138.913 114.443L136.387 118.392ZM142.428 120.689C142.428 120.501 142.483 120.345 142.592 120.22C142.706 120.095 142.874 120.032 143.096 120.032C143.319 120.032 143.487 120.095 143.6 120.22C143.717 120.345 143.776 120.501 143.776 120.689C143.776 120.868 143.717 121.019 143.6 121.14C143.487 121.261 143.319 121.322 143.096 121.322C142.874 121.322 142.706 121.261 142.592 121.14C142.483 121.019 142.428 120.868 142.428 120.689ZM147.034 116.464H147.848C148.36 116.456 148.762 116.322 149.055 116.06C149.348 115.798 149.495 115.445 149.495 114.999C149.495 113.999 148.997 113.499 148.001 113.499C147.532 113.499 147.157 113.634 146.876 113.904C146.598 114.169 146.46 114.523 146.46 114.964H145.376C145.376 114.288 145.622 113.728 146.114 113.282C146.61 112.833 147.239 112.609 148.001 112.609C148.805 112.609 149.436 112.822 149.893 113.247C150.35 113.673 150.579 114.265 150.579 115.023C150.579 115.394 150.458 115.753 150.215 116.101C149.977 116.448 149.651 116.708 149.237 116.88C149.706 117.029 150.067 117.275 150.321 117.618C150.579 117.962 150.708 118.382 150.708 118.878C150.708 119.644 150.458 120.251 149.958 120.7C149.458 121.15 148.807 121.374 148.006 121.374C147.206 121.374 146.553 121.157 146.049 120.724C145.549 120.29 145.299 119.718 145.299 119.007H146.389C146.389 119.456 146.536 119.816 146.829 120.085C147.122 120.355 147.514 120.49 148.006 120.49C148.53 120.49 148.93 120.353 149.208 120.079C149.485 119.806 149.624 119.413 149.624 118.902C149.624 118.406 149.471 118.025 149.167 117.759C148.862 117.493 148.422 117.357 147.848 117.349H147.034V116.464ZM152.102 114.366C152.102 113.855 152.264 113.433 152.588 113.101C152.917 112.769 153.337 112.603 153.848 112.603C154.368 112.603 154.788 112.771 155.108 113.107C155.432 113.439 155.594 113.87 155.594 114.402V114.818C155.594 115.333 155.43 115.755 155.102 116.083C154.778 116.407 154.364 116.57 153.86 116.57C153.352 116.57 152.932 116.407 152.6 116.083C152.268 115.755 152.102 115.32 152.102 114.777V114.366ZM152.911 114.818C152.911 115.122 152.997 115.374 153.169 115.573C153.34 115.769 153.571 115.866 153.86 115.866C154.137 115.866 154.36 115.771 154.528 115.579C154.7 115.388 154.786 115.126 154.786 114.794V114.366C154.786 114.062 154.702 113.81 154.534 113.611C154.366 113.411 154.137 113.312 153.848 113.312C153.559 113.312 153.331 113.411 153.163 113.611C152.995 113.81 152.911 114.07 152.911 114.39V114.818ZM156.256 119.165C156.256 118.654 156.419 118.234 156.743 117.906C157.071 117.573 157.491 117.407 158.003 117.407C158.514 117.407 158.934 117.572 159.262 117.9C159.59 118.228 159.754 118.663 159.754 119.206V119.622C159.754 120.134 159.59 120.556 159.262 120.888C158.938 121.216 158.522 121.38 158.014 121.38C157.506 121.38 157.087 121.218 156.754 120.894C156.422 120.566 156.256 120.13 156.256 119.587V119.165ZM157.065 119.622C157.065 119.931 157.151 120.185 157.323 120.384C157.495 120.579 157.725 120.677 158.014 120.677C158.296 120.677 158.52 120.581 158.688 120.39C158.856 120.195 158.94 119.931 158.94 119.599V119.165C158.94 118.857 158.854 118.605 158.682 118.409C158.514 118.214 158.288 118.116 158.003 118.116C157.725 118.116 157.499 118.214 157.323 118.409C157.151 118.601 157.065 118.861 157.065 119.189V119.622ZM154.106 120.613L153.491 120.226L157.657 113.558L158.272 113.945L154.106 120.613Z" fill="white" />
    <path d="M91 92L70.9731 4.25649C84.1549 1.24784 97.8452 1.24784 111.027 4.25649C124.209 7.26514 136.543 13.2051 147.114 21.6352C157.685 30.0652 166.221 40.7687 172.087 52.9505C177.954 65.1322 181 78.4792 181 92H91Z" fill="#990099" stroke="white" />
    <path d="M119.032 46.6304H113.442V45.8511L116.395 42.5698C116.833 42.0737 117.133 41.6714 117.297 41.3628C117.465 41.0503 117.549 40.728 117.549 40.396C117.549 39.9507 117.415 39.5854 117.145 39.3003C116.876 39.0151 116.516 38.8726 116.067 38.8726C115.528 38.8726 115.108 39.0269 114.807 39.3354C114.51 39.6401 114.362 40.0659 114.362 40.6128H113.278C113.278 39.8276 113.53 39.1929 114.034 38.7085C114.542 38.2241 115.219 37.9819 116.067 37.9819C116.86 37.9819 117.487 38.1909 117.948 38.6089C118.409 39.0229 118.639 39.5757 118.639 40.2671C118.639 41.1069 118.104 42.1069 117.034 43.2671L114.749 45.7456H119.032V46.6304ZM125.354 40.3257C125.354 40.7515 125.241 41.1304 125.014 41.4624C124.792 41.7944 124.489 42.0542 124.106 42.2417C124.551 42.4331 124.903 42.7124 125.161 43.0796C125.422 43.4468 125.553 43.8628 125.553 44.3276C125.553 45.0659 125.303 45.6538 124.803 46.0913C124.307 46.5288 123.653 46.7476 122.84 46.7476C122.02 46.7476 121.362 46.5288 120.866 46.0913C120.374 45.6499 120.128 45.062 120.128 44.3276C120.128 43.8667 120.253 43.4507 120.503 43.0796C120.756 42.7085 121.106 42.4272 121.551 42.2358C121.172 42.0483 120.874 41.7886 120.655 41.4565C120.436 41.1245 120.327 40.7476 120.327 40.3257C120.327 39.6069 120.557 39.0366 121.018 38.6147C121.479 38.1929 122.086 37.9819 122.84 37.9819C123.59 37.9819 124.196 38.1929 124.657 38.6147C125.122 39.0366 125.354 39.6069 125.354 40.3257ZM124.469 44.3042C124.469 43.8276 124.317 43.439 124.012 43.1382C123.711 42.8374 123.317 42.687 122.829 42.687C122.34 42.687 121.948 42.8354 121.651 43.1323C121.358 43.4292 121.211 43.8198 121.211 44.3042C121.211 44.7886 121.354 45.1694 121.639 45.4468C121.928 45.7241 122.329 45.8628 122.84 45.8628C123.348 45.8628 123.747 45.7241 124.036 45.4468C124.325 45.1655 124.469 44.7847 124.469 44.3042ZM122.84 38.8726C122.415 38.8726 122.069 39.0054 121.803 39.271C121.542 39.5327 121.411 39.8901 121.411 40.3433C121.411 40.7769 121.54 41.1284 121.797 41.3979C122.059 41.6636 122.407 41.7964 122.84 41.7964C123.274 41.7964 123.62 41.6636 123.878 41.3979C124.139 41.1284 124.27 40.7769 124.27 40.3433C124.27 39.9097 124.135 39.5562 123.866 39.2827C123.596 39.0093 123.254 38.8726 122.84 38.8726ZM127.053 46.062C127.053 45.8745 127.108 45.7183 127.217 45.5933C127.331 45.4683 127.499 45.4058 127.721 45.4058C127.944 45.4058 128.112 45.4683 128.225 45.5933C128.342 45.7183 128.401 45.8745 128.401 46.062C128.401 46.2417 128.342 46.3921 128.225 46.5132C128.112 46.6343 127.944 46.6948 127.721 46.6948C127.499 46.6948 127.331 46.6343 127.217 46.5132C127.108 46.3921 127.053 46.2417 127.053 46.062ZM134.336 38.0933V39.0132H134.137C133.294 39.0288 132.622 39.2788 132.122 39.7632C131.622 40.2476 131.333 40.9292 131.254 41.8081C131.704 41.2925 132.317 41.0347 133.094 41.0347C133.836 41.0347 134.428 41.2964 134.87 41.8198C135.315 42.3433 135.538 43.019 135.538 43.8472C135.538 44.7261 135.297 45.4292 134.817 45.9565C134.34 46.4839 133.7 46.7476 132.895 46.7476C132.079 46.7476 131.417 46.4351 130.909 45.8101C130.401 45.1812 130.147 44.3726 130.147 43.3843V42.9683C130.147 41.3979 130.481 40.1987 131.149 39.3706C131.821 38.5386 132.819 38.1128 134.143 38.0933H134.336ZM132.913 41.937C132.542 41.937 132.2 42.0483 131.887 42.271C131.575 42.4937 131.358 42.7729 131.237 43.1089V43.5073C131.237 44.2104 131.395 44.7769 131.711 45.2065C132.028 45.6362 132.422 45.8511 132.895 45.8511C133.383 45.8511 133.766 45.6714 134.044 45.312C134.325 44.9526 134.465 44.4819 134.465 43.8999C134.465 43.314 134.323 42.8413 134.038 42.4819C133.756 42.1187 133.381 41.937 132.913 41.937ZM136.727 39.7397C136.727 39.228 136.889 38.8062 137.213 38.4741C137.542 38.1421 137.961 37.9761 138.473 37.9761C138.993 37.9761 139.413 38.144 139.733 38.48C140.057 38.812 140.219 39.2437 140.219 39.7749V40.1909C140.219 40.7065 140.055 41.1284 139.727 41.4565C139.403 41.7808 138.989 41.9429 138.485 41.9429C137.977 41.9429 137.557 41.7808 137.225 41.4565C136.893 41.1284 136.727 40.6929 136.727 40.1499V39.7397ZM137.536 40.1909C137.536 40.4956 137.622 40.7476 137.794 40.9468C137.965 41.1421 138.196 41.2397 138.485 41.2397C138.762 41.2397 138.985 41.144 139.153 40.9526C139.325 40.7612 139.411 40.4995 139.411 40.1675V39.7397C139.411 39.4351 139.327 39.1831 139.159 38.9839C138.991 38.7847 138.762 38.6851 138.473 38.6851C138.184 38.6851 137.956 38.7847 137.788 38.9839C137.62 39.1831 137.536 39.4429 137.536 39.7632V40.1909ZM140.881 44.5386C140.881 44.0269 141.044 43.6069 141.368 43.2788C141.696 42.9468 142.116 42.7808 142.628 42.7808C143.139 42.7808 143.559 42.9448 143.887 43.2729C144.215 43.6011 144.379 44.0366 144.379 44.5796V44.9956C144.379 45.5073 144.215 45.9292 143.887 46.2612C143.563 46.5894 143.147 46.7534 142.639 46.7534C142.131 46.7534 141.711 46.5913 141.379 46.2671C141.047 45.939 140.881 45.5034 140.881 44.9604V44.5386ZM141.69 44.9956C141.69 45.3042 141.776 45.5581 141.948 45.7573C142.12 45.9526 142.35 46.0503 142.639 46.0503C142.92 46.0503 143.145 45.9546 143.313 45.7632C143.481 45.5679 143.565 45.3042 143.565 44.9722V44.5386C143.565 44.23 143.479 43.978 143.307 43.7827C143.139 43.5874 142.913 43.4897 142.628 43.4897C142.35 43.4897 142.124 43.5874 141.948 43.7827C141.776 43.9741 141.69 44.2339 141.69 44.562V44.9956ZM138.731 45.9858L138.116 45.5991L142.282 38.9312L142.897 39.3179L138.731 45.9858Z" fill="white" />
    <path d="M91 92L26.7146 29.0128C38.7895 16.689 54.1523 8.09571 70.9731 4.25647L91 92Z" fill="#109618" stroke="white" />
    <path d="M50.3052 34.1376C50.0786 34.4071 49.8071 34.6239 49.4907 34.788C49.1782 34.952 48.8345 35.0341 48.4595 35.0341C47.9673 35.0341 47.5376 34.913 47.1704 34.6708C46.8071 34.4286 46.5259 34.0887 46.3267 33.6512C46.1274 33.2098 46.0278 32.7235 46.0278 32.1923C46.0278 31.6219 46.1353 31.1083 46.3501 30.6512C46.5688 30.1942 46.8774 29.8446 47.2759 29.6024C47.6743 29.3602 48.1392 29.2391 48.6704 29.2391C49.5142 29.2391 50.1782 29.5555 50.6626 30.1884C51.1509 30.8173 51.395 31.6766 51.395 32.7665V33.0829C51.395 34.743 51.0669 35.9559 50.4106 36.7216C49.7544 37.4833 48.7642 37.8739 47.4399 37.8934H47.229V36.9794H47.4575C48.3521 36.9637 49.0396 36.7313 49.52 36.2821C50.0005 35.829 50.2622 35.1141 50.3052 34.1376ZM48.6353 34.1376C48.9985 34.1376 49.3325 34.0262 49.6372 33.8036C49.9458 33.5809 50.1704 33.3055 50.311 32.9774V32.5438C50.311 31.8329 50.1567 31.2548 49.8481 30.8094C49.5396 30.3641 49.1489 30.1415 48.6763 30.1415C48.1997 30.1415 47.8169 30.3251 47.5278 30.6923C47.2388 31.0555 47.0942 31.536 47.0942 32.1337C47.0942 32.7157 47.2329 33.1962 47.5103 33.5751C47.7915 33.9501 48.1665 34.1376 48.6353 34.1376ZM53.0239 37.3192C53.0239 37.1317 53.0786 36.9755 53.188 36.8505C53.3013 36.7255 53.4692 36.663 53.6919 36.663C53.9146 36.663 54.0825 36.7255 54.1958 36.8505C54.313 36.9755 54.3716 37.1317 54.3716 37.3192C54.3716 37.4989 54.313 37.6493 54.1958 37.7704C54.0825 37.8915 53.9146 37.952 53.6919 37.952C53.4692 37.952 53.3013 37.8915 53.188 37.7704C53.0786 37.6493 53.0239 37.4989 53.0239 37.3192ZM59.6157 37.8876H58.5259V30.663L56.3403 31.4657V30.4813L59.4458 29.3153H59.6157V37.8876ZM62.6978 30.9969C62.6978 30.4852 62.8599 30.0634 63.1841 29.7313C63.5122 29.3993 63.9321 29.2333 64.4438 29.2333C64.9634 29.2333 65.3833 29.4012 65.7036 29.7372C66.0278 30.0692 66.1899 30.5009 66.1899 31.0321V31.4481C66.1899 31.9637 66.0259 32.3856 65.6978 32.7137C65.3735 33.038 64.9595 33.2001 64.4556 33.2001C63.9478 33.2001 63.5278 33.038 63.1958 32.7137C62.8638 32.3856 62.6978 31.9501 62.6978 31.4071V30.9969ZM63.5063 31.4481C63.5063 31.7528 63.5923 32.0048 63.7642 32.204C63.936 32.3993 64.1665 32.4969 64.4556 32.4969C64.7329 32.4969 64.9556 32.4012 65.1235 32.2098C65.2954 32.0184 65.3813 31.7567 65.3813 31.4247V30.9969C65.3813 30.6923 65.2974 30.4403 65.1294 30.2411C64.9614 30.0419 64.7329 29.9423 64.4438 29.9423C64.1548 29.9423 63.9263 30.0419 63.7583 30.2411C63.5903 30.4403 63.5063 30.7001 63.5063 31.0204V31.4481ZM66.8521 35.7958C66.8521 35.2841 67.0142 34.8641 67.3384 34.536C67.6665 34.204 68.0864 34.038 68.5981 34.038C69.1099 34.038 69.5298 34.202 69.8579 34.5302C70.186 34.8583 70.3501 35.2938 70.3501 35.8368V36.2528C70.3501 36.7645 70.186 37.1864 69.8579 37.5184C69.5337 37.8466 69.1177 38.0106 68.6099 38.0106C68.1021 38.0106 67.6821 37.8485 67.3501 37.5243C67.0181 37.1962 66.8521 36.7606 66.8521 36.2177V35.7958ZM67.6606 36.2528C67.6606 36.5614 67.7466 36.8153 67.9185 37.0145C68.0903 37.2098 68.3208 37.3075 68.6099 37.3075C68.8911 37.3075 69.1157 37.2118 69.2837 37.0204C69.4517 36.8251 69.5356 36.5614 69.5356 36.2294V35.7958C69.5356 35.4872 69.4497 35.2352 69.2778 35.0399C69.1099 34.8446 68.8833 34.7469 68.5981 34.7469C68.3208 34.7469 68.0942 34.8446 67.9185 35.0399C67.7466 35.2313 67.6606 35.4911 67.6606 35.8192V36.2528ZM64.7017 37.243L64.0864 36.8563L68.2524 30.1884L68.8677 30.5751L64.7017 37.243Z" fill="white" />
    <path d="M91 92L2.86621 73.7671C6.36153 56.8715 14.6396 41.3366 26.7146 29.0128L91 92Z" fill="#FF9900" stroke="white" />
    <path d="M26.5374 61.7019C26.3109 61.9714 26.0394 62.1882 25.723 62.3523C25.4105 62.5164 25.0667 62.5984 24.6917 62.5984C24.1995 62.5984 23.7698 62.4773 23.4026 62.2351C23.0394 61.9929 22.7581 61.6531 22.5589 61.2156C22.3597 60.7742 22.2601 60.2878 22.2601 59.7566C22.2601 59.1863 22.3675 58.6726 22.5823 58.2156C22.8011 57.7585 23.1097 57.4089 23.5081 57.1667C23.9066 56.9246 24.3714 56.8035 24.9026 56.8035C25.7464 56.8035 26.4105 57.1199 26.8948 57.7527C27.3831 58.3816 27.6273 59.241 27.6273 60.3308V60.6472C27.6273 62.3074 27.2991 63.5203 26.6429 64.2859C25.9866 65.0476 24.9964 65.4382 23.6722 65.4578H23.4612V64.5437H23.6898C24.5843 64.5281 25.2718 64.2957 25.7523 63.8464C26.2327 63.3933 26.4944 62.6785 26.5374 61.7019ZM24.8675 61.7019C25.2308 61.7019 25.5648 61.5906 25.8694 61.3679C26.178 61.1453 26.4026 60.8699 26.5433 60.5417V60.1082C26.5433 59.3972 26.389 58.8191 26.0804 58.3738C25.7718 57.9285 25.3812 57.7058 24.9085 57.7058C24.4319 57.7058 24.0491 57.8894 23.7601 58.2566C23.471 58.6199 23.3265 59.1003 23.3265 59.698C23.3265 60.28 23.4651 60.7605 23.7425 61.1394C24.0237 61.5144 24.3987 61.7019 24.8675 61.7019ZM29.2562 64.8835C29.2562 64.696 29.3109 64.5398 29.4202 64.4148C29.5335 64.2898 29.7015 64.2273 29.9241 64.2273C30.1468 64.2273 30.3148 64.2898 30.428 64.4148C30.5452 64.5398 30.6038 64.696 30.6038 64.8835C30.6038 65.0632 30.5452 65.2136 30.428 65.3347C30.3148 65.4558 30.1468 65.5164 29.9241 65.5164C29.7015 65.5164 29.5335 65.4558 29.4202 65.3347C29.3109 65.2136 29.2562 65.0632 29.2562 64.8835ZM35.848 65.4519H34.7581V58.2273L32.5726 59.03V58.0457L35.678 56.8796H35.848V65.4519ZM38.93 58.5613C38.93 58.0496 39.0921 57.6277 39.4163 57.2957C39.7444 56.9636 40.1644 56.7976 40.6761 56.7976C41.1956 56.7976 41.6155 56.9656 41.9359 57.3015C42.2601 57.6335 42.4222 58.0652 42.4222 58.5964V59.0125C42.4222 59.5281 42.2581 59.95 41.93 60.2781C41.6058 60.6023 41.1917 60.7644 40.6878 60.7644C40.18 60.7644 39.7601 60.6023 39.428 60.2781C39.096 59.95 38.93 59.5144 38.93 58.9714V58.5613ZM39.7386 59.0125C39.7386 59.3171 39.8245 59.5691 39.9964 59.7683C40.1683 59.9636 40.3987 60.0613 40.6878 60.0613C40.9651 60.0613 41.1878 59.9656 41.3558 59.7742C41.5276 59.5828 41.6136 59.321 41.6136 58.989V58.5613C41.6136 58.2566 41.5296 58.0046 41.3616 57.8054C41.1937 57.6062 40.9651 57.5066 40.6761 57.5066C40.387 57.5066 40.1585 57.6062 39.9905 57.8054C39.8226 58.0046 39.7386 58.2644 39.7386 58.5847V59.0125ZM43.0843 63.3601C43.0843 62.8484 43.2464 62.4285 43.5706 62.1003C43.8987 61.7683 44.3187 61.6023 44.8304 61.6023C45.3421 61.6023 45.762 61.7664 46.0901 62.0945C46.4183 62.4226 46.5823 62.8582 46.5823 63.4011V63.8171C46.5823 64.3289 46.4183 64.7507 46.0901 65.0828C45.7659 65.4109 45.3499 65.575 44.8421 65.575C44.3343 65.575 43.9144 65.4128 43.5823 65.0886C43.2503 64.7605 43.0843 64.325 43.0843 63.782V63.3601ZM43.8929 63.8171C43.8929 64.1257 43.9788 64.3796 44.1507 64.5789C44.3226 64.7742 44.553 64.8718 44.8421 64.8718C45.1234 64.8718 45.348 64.7761 45.5159 64.5847C45.6839 64.3894 45.7679 64.1257 45.7679 63.7937V63.3601C45.7679 63.0515 45.6819 62.7996 45.5101 62.6042C45.3421 62.4089 45.1155 62.3113 44.8304 62.3113C44.553 62.3113 44.3265 62.4089 44.1507 62.6042C43.9788 62.7957 43.8929 63.0554 43.8929 63.3835V63.8171ZM40.9339 64.8074L40.3187 64.4207L44.4847 57.7527L45.0999 58.1394L40.9339 64.8074Z" fill="white" />
    <path d="M91 92L147.114 162.365C132.647 173.902 114.974 180.7 96.5045 181.831C78.0346 182.963 59.6647 178.374 43.8969 168.69C28.129 159.005 15.7296 144.695 8.3875 127.71C1.04538 110.724 -0.882581 91.888 2.86621 73.7671L91 92Z" fill="#DC3912" stroke="white" />
    <path d="M46.594 146.888H47.4084C47.9202 146.881 48.3225 146.746 48.6155 146.484C48.9084 146.222 49.0549 145.869 49.0549 145.424C49.0549 144.424 48.5569 143.924 47.5608 143.924C47.092 143.924 46.717 144.058 46.4358 144.328C46.1584 144.594 46.0198 144.947 46.0198 145.388H44.9358C44.9358 144.713 45.1819 144.152 45.6741 143.707C46.1702 143.258 46.7991 143.033 47.5608 143.033C48.3655 143.033 48.9963 143.246 49.4534 143.672C49.9104 144.097 50.1389 144.689 50.1389 145.447C50.1389 145.818 50.0178 146.177 49.7756 146.525C49.5374 146.873 49.2112 147.133 48.7971 147.304C49.2659 147.453 49.6272 147.699 49.8811 148.043C50.1389 148.386 50.2678 148.806 50.2678 149.302C50.2678 150.068 50.0178 150.676 49.5178 151.125C49.0178 151.574 48.3674 151.799 47.5667 151.799C46.7659 151.799 46.1135 151.582 45.6096 151.148C45.1096 150.715 44.8596 150.142 44.8596 149.431H45.9495C45.9495 149.881 46.0959 150.24 46.3889 150.51C46.6819 150.779 47.0745 150.914 47.5667 150.914C48.0901 150.914 48.4905 150.777 48.7678 150.504C49.0452 150.23 49.1838 149.838 49.1838 149.326C49.1838 148.83 49.0315 148.449 48.7268 148.183C48.4221 147.918 47.9827 147.781 47.4084 147.773H46.594V146.888ZM55.9104 147.931C55.6838 148.201 55.4124 148.418 55.0959 148.582C54.7834 148.746 54.4397 148.828 54.0647 148.828C53.5725 148.828 53.1428 148.707 52.7756 148.465C52.4124 148.222 52.1311 147.883 51.9319 147.445C51.7327 147.004 51.6331 146.517 51.6331 145.986C51.6331 145.416 51.7405 144.902 51.9553 144.445C52.1741 143.988 52.4827 143.638 52.8811 143.396C53.2795 143.154 53.7444 143.033 54.2756 143.033C55.1194 143.033 55.7834 143.349 56.2678 143.982C56.7561 144.611 57.0002 145.47 57.0002 146.56V146.877C57.0002 148.537 56.6721 149.75 56.0159 150.515C55.3596 151.277 54.3694 151.668 53.0452 151.687H52.8342V150.773H53.0627C53.9573 150.758 54.6448 150.525 55.1252 150.076C55.6057 149.623 55.8674 148.908 55.9104 147.931ZM54.2405 147.931C54.6038 147.931 54.9377 147.82 55.2424 147.597C55.551 147.375 55.7756 147.099 55.9163 146.771V146.338C55.9163 145.627 55.762 145.049 55.4534 144.603C55.1448 144.158 54.7542 143.935 54.2815 143.935C53.8049 143.935 53.4221 144.119 53.1331 144.486C52.844 144.849 52.6995 145.33 52.6995 145.927C52.6995 146.51 52.8381 146.99 53.1155 147.369C53.3967 147.744 53.7717 147.931 54.2405 147.931ZM58.4006 144.791C58.4006 144.279 58.5627 143.857 58.887 143.525C59.2151 143.193 59.635 143.027 60.1467 143.027C60.6663 143.027 61.0862 143.195 61.4065 143.531C61.7307 143.863 61.8928 144.295 61.8928 144.826V145.242C61.8928 145.758 61.7288 146.179 61.4006 146.508C61.0764 146.832 60.6624 146.994 60.1584 146.994C59.6506 146.994 59.2307 146.832 58.8987 146.508C58.5667 146.179 58.4006 145.744 58.4006 145.201V144.791ZM59.2092 145.242C59.2092 145.547 59.2952 145.799 59.467 145.998C59.6389 146.193 59.8694 146.291 60.1584 146.291C60.4358 146.291 60.6584 146.195 60.8264 146.004C60.9983 145.812 61.0842 145.551 61.0842 145.219V144.791C61.0842 144.486 61.0002 144.234 60.8323 144.035C60.6643 143.836 60.4358 143.736 60.1467 143.736C59.8577 143.736 59.6292 143.836 59.4612 144.035C59.2932 144.234 59.2092 144.494 59.2092 144.814V145.242ZM62.5549 149.59C62.5549 149.078 62.717 148.658 63.0413 148.33C63.3694 147.998 63.7893 147.832 64.301 147.832C64.8127 147.832 65.2327 147.996 65.5608 148.324C65.8889 148.652 66.053 149.088 66.053 149.631V150.047C66.053 150.558 65.8889 150.98 65.5608 151.312C65.2366 151.64 64.8206 151.804 64.3127 151.804C63.8049 151.804 63.385 151.642 63.053 151.318C62.7209 150.99 62.5549 150.554 62.5549 150.011V149.59ZM63.3635 150.047C63.3635 150.355 63.4495 150.609 63.6213 150.808C63.7932 151.004 64.0237 151.101 64.3127 151.101C64.594 151.101 64.8186 151.006 64.9866 150.814C65.1545 150.619 65.2385 150.355 65.2385 150.023V149.59C65.2385 149.281 65.1526 149.029 64.9807 148.834C64.8127 148.638 64.5862 148.541 64.301 148.541C64.0237 148.541 63.7971 148.638 63.6213 148.834C63.4495 149.025 63.3635 149.285 63.3635 149.613V150.047ZM60.4045 151.037L59.7893 150.65L63.9553 143.982L64.5706 144.369L60.4045 151.037Z" fill="white" />
</svg>