<svg width="268" height="182" viewBox="0 0 268 182" fill="none" xmlns="http://www.w3.org/2000/svg">
    <path d="M255.504 77.1973C254.539 76.9199 253.836 76.5801 253.395 76.1777C252.957 75.7715 252.738 75.2715 252.738 74.6777C252.738 74.0059 253.006 73.4512 253.541 73.0137C254.08 72.5723 254.779 72.3516 255.639 72.3516C256.225 72.3516 256.746 72.4648 257.203 72.6914C257.664 72.918 258.02 73.2305 258.27 73.6289C258.523 74.0273 258.65 74.4629 258.65 74.9355H257.52C257.52 74.4199 257.355 74.0156 257.027 73.7227C256.699 73.4258 256.236 73.2773 255.639 73.2773C255.084 73.2773 254.65 73.4004 254.338 73.6465C254.029 73.8887 253.875 74.2266 253.875 74.6602C253.875 75.0078 254.021 75.3027 254.314 75.5449C254.611 75.7832 255.113 76.002 255.82 76.2012C256.531 76.4004 257.086 76.6211 257.484 76.8633C257.887 77.1016 258.184 77.3809 258.375 77.7012C258.57 78.0215 258.668 78.3984 258.668 78.832C258.668 79.5234 258.398 80.0781 257.859 80.4961C257.32 80.9102 256.6 81.1172 255.697 81.1172C255.111 81.1172 254.564 81.0059 254.057 80.7832C253.549 80.5566 253.156 80.248 252.879 79.8574C252.605 79.4668 252.469 79.0234 252.469 78.5273H253.6C253.6 79.043 253.789 79.4512 254.168 79.752C254.551 80.0488 255.061 80.1973 255.697 80.1973C256.291 80.1973 256.746 80.0762 257.062 79.834C257.379 79.5918 257.537 79.2617 257.537 78.8438C257.537 78.4258 257.391 78.1035 257.098 77.877C256.805 77.6465 256.273 77.4199 255.504 77.1973ZM261.123 81H260.033V74.6602H261.123V81ZM261.135 72.0059H262.447L260.877 73.7285H260.004L261.135 72.0059Z" fill="var(--text-color)" />
    <path d="M241 83.8C244.314 83.8 247 81.1137 247 77.8C247 74.4863 244.314 71.8 241 71.8C237.686 71.8 235 74.4863 235 77.8C235 81.1137 237.686 83.8 241 83.8Z" fill="#3366CC" />
    <path d="M259.547 100H258.416L254.121 93.4258V100H252.99V91.4688H254.121L258.428 98.0723V91.4688H259.547V100ZM261.088 96.7715C261.088 96.1504 261.209 95.5918 261.451 95.0957C261.697 94.5996 262.037 94.2168 262.471 93.9473C262.908 93.6777 263.406 93.543 263.965 93.543C264.828 93.543 265.525 93.8418 266.057 94.4395C266.592 95.0371 266.859 95.832 266.859 96.8242V96.9004C266.859 97.5176 266.74 98.0723 266.502 98.5645C266.268 99.0527 265.93 99.4336 265.488 99.707C265.051 99.9805 264.547 100.117 263.977 100.117C263.117 100.117 262.42 99.8184 261.885 99.2207C261.354 98.623 261.088 97.832 261.088 96.8477V96.7715ZM262.178 96.9004C262.178 97.6035 262.34 98.168 262.664 98.5938C262.992 99.0195 263.43 99.2324 263.977 99.2324C264.527 99.2324 264.965 99.0176 265.289 98.5879C265.613 98.1543 265.775 97.5488 265.775 96.7715C265.775 96.0762 265.609 95.5137 265.277 95.084C264.949 94.6504 264.512 94.4336 263.965 94.4336C263.43 94.4336 262.998 94.6465 262.67 95.0723C262.342 95.498 262.178 96.1074 262.178 96.9004Z" fill="var(--text-color)" />
    <path d="M241 102.8C244.314 102.8 247 100.114 247 96.8C247 93.4863 244.314 90.8 241 90.8C237.686 90.8 235 93.4863 235 96.8C235 100.114 237.686 102.8 241 102.8Z" fill="#DC3912" />
    <path d="M91 91L37.8027 163.595C25.3942 154.502 15.5236 142.381 9.13311 128.387C2.74261 114.394 0.0455722 98.9964 1.29946 83.6642C2.55335 68.332 7.71633 53.577 16.2955 40.808C24.8746 28.039 36.5836 17.6822 50.3045 10.7262C64.0255 3.77029 79.3004 0.447442 94.671 1.07491C110.042 1.70238 124.995 6.25922 138.103 14.3104C151.211 22.3616 162.037 33.6384 169.547 47.0642C177.057 60.49 181 75.6166 181 91H91Z" fill="#DC3912" stroke="white" />
    <path d="M50.0413 28.6136V29.5336H49.8421C48.9983 29.5492 48.3264 29.7992 47.8264 30.2836C47.3264 30.7679 47.0374 31.4496 46.9593 32.3285C47.4085 31.8129 48.0218 31.5551 48.7991 31.5551C49.5413 31.5551 50.1331 31.8168 50.5745 32.3402C51.0198 32.8636 51.2425 33.5394 51.2425 34.3676C51.2425 35.2465 51.0022 35.9496 50.5218 36.4769C50.0452 37.0043 49.4046 37.2679 48.5999 37.2679C47.7835 37.2679 47.1214 36.9554 46.6136 36.3304C46.1057 35.7015 45.8518 34.8929 45.8518 33.9047V33.4886C45.8518 31.9183 46.1858 30.7191 46.8538 29.891C47.5257 29.059 48.5237 28.6332 49.8479 28.6136H50.0413ZM48.6175 32.4574C48.2464 32.4574 47.9046 32.5687 47.5921 32.7914C47.2796 33.014 47.0628 33.2933 46.9417 33.6293V34.0277C46.9417 34.7308 47.0999 35.2972 47.4163 35.7269C47.7327 36.1566 48.1272 36.3715 48.5999 36.3715C49.0882 36.3715 49.471 36.1918 49.7483 35.8324C50.0296 35.473 50.1702 35.0023 50.1702 34.4203C50.1702 33.8344 50.0276 33.3617 49.7425 33.0023C49.4612 32.639 49.0862 32.4574 48.6175 32.4574ZM57.1018 34.2855H58.2854V35.1703H57.1018V37.1508H56.012V35.1703H52.1272V34.5316L55.9475 28.6195H57.1018V34.2855ZM53.3577 34.2855H56.012V30.1019L55.8831 30.3363L53.3577 34.2855ZM59.3987 36.5824C59.3987 36.3949 59.4534 36.2386 59.5628 36.1136C59.6761 35.9886 59.844 35.9261 60.0667 35.9261C60.2893 35.9261 60.4573 35.9886 60.5706 36.1136C60.6878 36.2386 60.7464 36.3949 60.7464 36.5824C60.7464 36.7621 60.6878 36.9125 60.5706 37.0336C60.4573 37.1547 60.2893 37.2152 60.0667 37.2152C59.844 37.2152 59.6761 37.1547 59.5628 37.0336C59.4534 36.9125 59.3987 36.7621 59.3987 36.5824ZM66.5823 33.4008C66.3557 33.6703 66.0843 33.8871 65.7679 34.0511C65.4554 34.2152 65.1116 34.2972 64.7366 34.2972C64.2444 34.2972 63.8147 34.1761 63.4475 33.934C63.0843 33.6918 62.803 33.3519 62.6038 32.9144C62.4046 32.473 62.305 31.9867 62.305 31.4554C62.305 30.8851 62.4124 30.3715 62.6272 29.9144C62.846 29.4574 63.1546 29.1078 63.553 28.8656C63.9514 28.6234 64.4163 28.5023 64.9475 28.5023C65.7913 28.5023 66.4554 28.8187 66.9397 29.4515C67.428 30.0804 67.6721 30.9398 67.6721 32.0297V32.3461C67.6721 34.0062 67.344 35.2191 66.6878 35.9847C66.0315 36.7465 65.0413 37.1371 63.7171 37.1566H63.5061V36.2426H63.7346C64.6292 36.2269 65.3167 35.9945 65.7971 35.5453C66.2776 35.0922 66.5393 34.3773 66.5823 33.4008ZM64.9124 33.4008C65.2757 33.4008 65.6096 33.2894 65.9143 33.0668C66.2229 32.8441 66.4475 32.5687 66.5882 32.2406V31.807C66.5882 31.0961 66.4339 30.5179 66.1253 30.0726C65.8167 29.6273 65.4261 29.4047 64.9534 29.4047C64.4768 29.4047 64.094 29.5883 63.805 29.9554C63.5159 30.3187 63.3714 30.7992 63.3714 31.3969C63.3714 31.9789 63.51 32.4594 63.7874 32.8383C64.0686 33.2133 64.4436 33.4008 64.9124 33.4008ZM69.0725 30.2601C69.0725 29.7484 69.2346 29.3265 69.5589 28.9945C69.887 28.6625 70.3069 28.4965 70.8186 28.4965C71.3382 28.4965 71.7581 28.6644 72.0784 29.0004C72.4026 29.3324 72.5647 29.764 72.5647 30.2953V30.7113C72.5647 31.2269 72.4007 31.6488 72.0725 31.9769C71.7483 32.3011 71.3343 32.4633 70.8304 32.4633C70.3225 32.4633 69.9026 32.3011 69.5706 31.9769C69.2386 31.6488 69.0725 31.2133 69.0725 30.6703V30.2601ZM69.8811 30.7113C69.8811 31.016 69.9671 31.2679 70.1389 31.4672C70.3108 31.6625 70.5413 31.7601 70.8304 31.7601C71.1077 31.7601 71.3304 31.6644 71.4983 31.473C71.6702 31.2816 71.7561 31.0199 71.7561 30.6879V30.2601C71.7561 29.9554 71.6721 29.7035 71.5042 29.5043C71.3362 29.3051 71.1077 29.2054 70.8186 29.2054C70.5296 29.2054 70.3011 29.3051 70.1331 29.5043C69.9651 29.7035 69.8811 29.9633 69.8811 30.2836V30.7113ZM73.2268 35.059C73.2268 34.5472 73.3889 34.1273 73.7132 33.7992C74.0413 33.4672 74.4612 33.3011 74.9729 33.3011C75.4846 33.3011 75.9046 33.4652 76.2327 33.7933C76.5608 34.1215 76.7249 34.557 76.7249 35.1V35.516C76.7249 36.0277 76.5608 36.4496 76.2327 36.7816C75.9085 37.1097 75.4925 37.2738 74.9846 37.2738C74.4768 37.2738 74.0569 37.1117 73.7249 36.7875C73.3929 36.4594 73.2268 36.0238 73.2268 35.4808V35.059ZM74.0354 35.516C74.0354 35.8246 74.1214 36.0785 74.2932 36.2777C74.4651 36.473 74.6956 36.5707 74.9846 36.5707C75.2659 36.5707 75.4905 36.475 75.6585 36.2836C75.8264 36.0883 75.9104 35.8246 75.9104 35.4926V35.059C75.9104 34.7504 75.8245 34.4984 75.6526 34.3031C75.4846 34.1078 75.2581 34.0101 74.9729 34.0101C74.6956 34.0101 74.469 34.1078 74.2932 34.3031C74.1214 34.4945 74.0354 34.7543 74.0354 35.0824V35.516ZM71.0764 36.5062L70.4612 36.1195L74.6272 29.4515L75.2425 29.8383L71.0764 36.5062Z" fill="white" />
    <path d="M91 91H181C181 107.629 176.393 123.933 167.69 138.103C158.986 152.273 146.528 163.755 131.695 171.274C116.863 178.793 100.238 182.056 83.6642 180.701C67.0903 179.345 51.216 173.424 37.8027 163.595L91 91Z" fill="#3366CC" stroke="white" />
    <path d="M105.207 146.456H106.021C106.533 146.448 106.935 146.314 107.228 146.052C107.521 145.79 107.668 145.437 107.668 144.991C107.668 143.991 107.17 143.491 106.174 143.491C105.705 143.491 105.33 143.626 105.049 143.896C104.771 144.161 104.633 144.515 104.633 144.956H103.549C103.549 144.28 103.795 143.72 104.287 143.275C104.783 142.825 105.412 142.601 106.174 142.601C106.978 142.601 107.609 142.814 108.066 143.239C108.523 143.665 108.752 144.257 108.752 145.015C108.752 145.386 108.631 145.745 108.388 146.093C108.15 146.441 107.824 146.7 107.41 146.872C107.879 147.021 108.24 147.267 108.494 147.611C108.752 147.954 108.881 148.374 108.881 148.87C108.881 149.636 108.631 150.243 108.131 150.693C107.631 151.142 106.98 151.366 106.179 151.366C105.379 151.366 104.726 151.15 104.222 150.716C103.722 150.282 103.472 149.71 103.472 148.999H104.562C104.562 149.448 104.709 149.808 105.002 150.077C105.295 150.347 105.687 150.482 106.179 150.482C106.703 150.482 107.103 150.345 107.381 150.072C107.658 149.798 107.797 149.405 107.797 148.894C107.797 148.398 107.644 148.017 107.34 147.751C107.035 147.486 106.595 147.349 106.021 147.341H105.207V146.456ZM110.867 146.972L111.301 142.718H115.672V143.72H112.22L111.963 146.046C112.381 145.8 112.855 145.677 113.386 145.677C114.164 145.677 114.781 145.935 115.238 146.45C115.695 146.962 115.924 147.655 115.924 148.53C115.924 149.409 115.685 150.103 115.209 150.611C114.736 151.114 114.074 151.366 113.222 151.366C112.469 151.366 111.853 151.157 111.377 150.739C110.9 150.322 110.629 149.743 110.562 149.005H111.588C111.654 149.493 111.828 149.863 112.109 150.113C112.39 150.359 112.761 150.482 113.222 150.482C113.726 150.482 114.121 150.31 114.406 149.966C114.695 149.622 114.84 149.148 114.84 148.542C114.84 147.972 114.683 147.515 114.371 147.171C114.062 146.823 113.65 146.65 113.135 146.65C112.662 146.65 112.291 146.753 112.021 146.96L111.734 147.195L110.867 146.972ZM117.242 150.681C117.242 150.493 117.297 150.337 117.406 150.212C117.519 150.087 117.687 150.025 117.91 150.025C118.133 150.025 118.301 150.087 118.414 150.212C118.531 150.337 118.59 150.493 118.59 150.681C118.59 150.861 118.531 151.011 118.414 151.132C118.301 151.253 118.133 151.314 117.91 151.314C117.687 151.314 117.519 151.253 117.406 151.132C117.297 151.011 117.242 150.861 117.242 150.681ZM123.834 151.249H122.744V144.025L120.558 144.827V143.843L123.664 142.677H123.834V151.249ZM126.916 144.359C126.916 143.847 127.078 143.425 127.402 143.093C127.73 142.761 128.15 142.595 128.662 142.595C129.181 142.595 129.601 142.763 129.922 143.099C130.246 143.431 130.408 143.863 130.408 144.394V144.81C130.408 145.325 130.244 145.747 129.916 146.075C129.592 146.4 129.177 146.562 128.674 146.562C128.166 146.562 127.746 146.4 127.414 146.075C127.082 145.747 126.916 145.312 126.916 144.769V144.359ZM127.724 144.81C127.724 145.114 127.81 145.366 127.982 145.566C128.154 145.761 128.385 145.859 128.674 145.859C128.951 145.859 129.174 145.763 129.342 145.572C129.513 145.38 129.599 145.118 129.599 144.786V144.359C129.599 144.054 129.515 143.802 129.347 143.603C129.179 143.404 128.951 143.304 128.662 143.304C128.373 143.304 128.144 143.404 127.976 143.603C127.808 143.802 127.724 144.062 127.724 144.382V144.81ZM131.07 149.157C131.07 148.646 131.232 148.226 131.556 147.898C131.885 147.566 132.304 147.4 132.816 147.4C133.328 147.4 133.748 147.564 134.076 147.892C134.404 148.22 134.568 148.655 134.568 149.198V149.614C134.568 150.126 134.404 150.548 134.076 150.88C133.752 151.208 133.336 151.372 132.828 151.372C132.32 151.372 131.9 151.21 131.568 150.886C131.236 150.558 131.07 150.122 131.07 149.579V149.157ZM131.879 149.614C131.879 149.923 131.965 150.177 132.136 150.376C132.308 150.572 132.539 150.669 132.828 150.669C133.109 150.669 133.334 150.573 133.502 150.382C133.67 150.187 133.754 149.923 133.754 149.591V149.157C133.754 148.849 133.668 148.597 133.496 148.402C133.328 148.206 133.101 148.109 132.816 148.109C132.539 148.109 132.312 148.206 132.136 148.402C131.965 148.593 131.879 148.853 131.879 149.181V149.614ZM128.92 150.605L128.304 150.218L132.47 143.55L133.086 143.937L128.92 150.605Z" fill="white" />
</svg>